<svg width="497" height="266" viewBox="0 0 497 266" fill="none" xmlns="http://www.w3.org/2000/svg">
    <g clip-path="url(#clip0_83_314)">
        <path
            d="M483.908 265.288H12.8632C9.64773 265.285 6.56497 264.228 4.29127 262.351C2.01758 260.473 0.73862 257.928 0.734985 255.272V15.4212C0.737606 13.4759 1.67455 11.6109 3.34026 10.2353C5.00596 8.85977 7.26441 8.08598 9.62012 8.08374H486.997C489.394 8.08599 491.691 8.87313 493.386 10.2725C495.08 11.6718 496.033 13.5691 496.036 15.548V255.272C496.033 257.928 494.754 260.473 492.48 262.351C490.206 264.228 487.123 265.285 483.908 265.288Z"
            fill="#FFFBFF" />
        <path
            d="M483.908 265.288H12.8632C9.64773 265.285 6.56497 264.228 4.29127 262.351C2.01758 260.473 0.73862 257.928 0.734985 255.272V15.4212C0.737606 13.4759 1.67455 11.6109 3.34026 10.2353C5.00596 8.85977 7.26441 8.08598 9.62012 8.08374H486.997C489.394 8.08599 491.691 8.87313 493.386 10.2725C495.08 11.6718 496.033 13.5691 496.036 15.548V255.272C496.033 257.928 494.754 260.473 492.48 262.351C490.206 264.228 487.123 265.285 483.908 265.288Z"
            fill="#676000" fill-opacity="0.08" />
        <path
            d="M468.201 248.386H29.3048C22.8711 248.386 17.6369 244.491 17.6369 239.704V38.7733C17.6369 35.223 21.5156 32.3345 26.2831 32.3345H471.079C475.926 32.3345 479.869 35.2706 479.869 38.8794V239.704C479.869 244.491 474.635 248.386 468.201 248.386Z"
            fill="white" />
        <path
            d="M495.589 18.3351H0.405334V12.1619C0.409996 8.9365 1.69387 5.84465 3.97528 3.56464C6.25669 1.28463 9.34934 0.00267446 12.5747 0H483.42C486.645 0.00264726 489.738 1.2846 492.019 3.56461C494.301 5.84462 495.585 8.93649 495.589 12.1619V18.3351Z"
            fill="#E6E2D9" />
        <path
            d="M22.5215 12.3336C24.2599 12.3336 25.6692 10.9243 25.6692 9.18583C25.6692 7.44738 24.2599 6.03809 22.5215 6.03809C20.783 6.03809 19.3737 7.44738 19.3737 9.18583C19.3737 10.9243 20.783 12.3336 22.5215 12.3336Z"
            fill="white" />
        <path
            d="M34.4695 12.3336C36.208 12.3336 37.6173 10.9243 37.6173 9.18583C37.6173 7.44738 36.208 6.03809 34.4695 6.03809C32.7311 6.03809 31.3218 7.44738 31.3218 9.18583C31.3218 10.9243 32.7311 12.3336 34.4695 12.3336Z"
            fill="white" />
        <path
            d="M46.4176 12.3336C48.1561 12.3336 49.5654 10.9243 49.5654 9.18583C49.5654 7.44738 48.1561 6.03809 46.4176 6.03809C44.6792 6.03809 43.2699 7.44738 43.2699 9.18583C43.2699 10.9243 44.6792 12.3336 46.4176 12.3336Z"
            fill="white" />
        <path
            d="M216.128 178.205C214.306 178.209 212.557 177.493 211.26 176.213L178.993 144.35C178.36 143.724 177.857 142.979 177.513 142.158C177.17 141.336 176.993 140.455 176.993 139.564C176.993 138.674 177.17 137.793 177.513 136.971C177.857 136.15 178.36 135.405 178.993 134.779L211.13 103.044C212.469 101.729 214.272 100.994 216.149 101C218.026 101.006 219.825 101.752 221.156 103.076C222.488 104.411 223.236 106.219 223.236 108.105C223.236 109.99 222.488 111.799 221.156 113.134L197.276 137.015C196.532 137.76 196.114 138.771 196.114 139.824C196.114 140.878 196.532 141.888 197.276 142.634L221.027 166.385C221.996 167.353 222.657 168.587 222.925 169.931C223.193 171.275 223.056 172.668 222.531 173.934C222.006 175.199 221.118 176.281 219.978 177.041C218.838 177.802 217.498 178.207 216.128 178.205V178.205Z"
            fill="#FFFBFF" />
        <path
            d="M216.128 178.205C214.306 178.209 212.557 177.493 211.26 176.213L178.993 144.35C178.36 143.724 177.857 142.979 177.513 142.158C177.17 141.336 176.993 140.455 176.993 139.564C176.993 138.674 177.17 137.793 177.513 136.971C177.857 136.15 178.36 135.405 178.993 134.779L211.13 103.044C212.469 101.729 214.272 100.994 216.149 101C218.026 101.006 219.825 101.752 221.156 103.076C222.488 104.411 223.236 106.219 223.236 108.105C223.236 109.99 222.488 111.799 221.156 113.134L197.276 137.015C196.532 137.76 196.114 138.771 196.114 139.824C196.114 140.878 196.532 141.888 197.276 142.634L221.027 166.385C221.996 167.353 222.657 168.587 222.925 169.931C223.193 171.275 223.056 172.668 222.531 173.934C222.006 175.199 221.118 176.281 219.978 177.041C218.838 177.802 217.498 178.207 216.128 178.205V178.205Z"
            fill="#676000" fill-opacity="0.14" />
        <path
            d="M267.543 178.205C266.173 178.207 264.833 177.802 263.693 177.041C262.553 176.281 261.664 175.199 261.14 173.934C260.615 172.668 260.478 171.275 260.746 169.931C261.014 168.587 261.674 167.353 262.644 166.385L286.395 142.634C287.139 141.888 287.557 140.878 287.557 139.824C287.557 138.771 287.139 137.76 286.395 137.015L262.515 113.134C261.854 112.473 261.33 111.689 260.973 110.827C260.615 109.964 260.432 109.039 260.432 108.105C260.432 107.171 260.616 106.246 260.973 105.383C261.33 104.52 261.854 103.736 262.515 103.076C263.845 101.752 265.644 101.006 267.521 101C269.398 100.994 271.202 101.729 272.541 103.044L304.678 134.779C305.311 135.405 305.814 136.15 306.157 136.971C306.501 137.793 306.677 138.674 306.677 139.564C306.677 140.455 306.501 141.336 306.157 142.158C305.814 142.979 305.311 143.724 304.678 144.35L272.41 176.213C271.114 177.493 269.365 178.209 267.543 178.205Z"
            fill="#FFFBFF" />
        <path
            d="M267.543 178.205C266.173 178.207 264.833 177.802 263.693 177.041C262.553 176.281 261.664 175.199 261.14 173.934C260.615 172.668 260.478 171.275 260.746 169.931C261.014 168.587 261.674 167.353 262.644 166.385L286.395 142.634C287.139 141.888 287.557 140.878 287.557 139.824C287.557 138.771 287.139 137.76 286.395 137.015L262.515 113.134C261.854 112.473 261.33 111.689 260.973 110.827C260.615 109.964 260.432 109.039 260.432 108.105C260.432 107.171 260.616 106.246 260.973 105.383C261.33 104.52 261.854 103.736 262.515 103.076C263.845 101.752 265.644 101.006 267.521 101C269.398 100.994 271.202 101.729 272.541 103.044L304.678 134.779C305.311 135.405 305.814 136.15 306.157 136.971C306.501 137.793 306.677 138.674 306.677 139.564C306.677 140.455 306.501 141.336 306.157 142.158C305.814 142.979 305.311 143.724 304.678 144.35L272.41 176.213C271.114 177.493 269.365 178.209 267.543 178.205Z"
            fill="#676000" fill-opacity="0.14" />
    </g>
    <defs>
        <clipPath id="clip0_83_314">
            <rect width="496.036" height="265.287" fill="white" />
        </clipPath>
    </defs>
</svg>