<svg width="356" height="171" viewBox="0 0 356 171" fill="none" xmlns="http://www.w3.org/2000/svg">
    <g filter="url(#filter0_d_52_438)">
        <rect x="17.4442" y="13.7125" width="321.556" height="136.575" rx="12.639" fill="white" />
        <path
            d="M103.763 45.0357C104.104 45.0357 104.384 44.9954 104.602 44.9149C104.824 44.8296 105.002 44.7182 105.135 44.5807C105.268 44.4433 105.36 44.2869 105.412 44.1115C105.464 43.9314 105.49 43.7466 105.49 43.557C105.49 43.3484 105.46 43.1612 105.398 42.9953C105.336 42.8294 105.237 42.6896 105.099 42.5759C104.962 42.4574 104.782 42.3673 104.559 42.3057C104.341 42.2441 104.071 42.2133 103.749 42.2133H101.936V45.0357H103.763ZM101.936 37.9761V40.763H103.336C103.635 40.763 103.9 40.7393 104.132 40.6919C104.365 40.6397 104.559 40.5592 104.715 40.4502C104.872 40.3412 104.99 40.199 105.071 40.0236C105.156 39.8435 105.199 39.6278 105.199 39.3766C105.199 39.1207 105.163 38.9027 105.092 38.7226C105.026 38.5425 104.922 38.3979 104.779 38.2889C104.637 38.1799 104.457 38.1017 104.239 38.0543C104.021 38.0022 103.763 37.9761 103.464 37.9761H101.936ZM103.464 36.3551C104.156 36.3551 104.746 36.4215 105.234 36.5542C105.727 36.6822 106.128 36.867 106.436 37.1087C106.749 37.3457 106.976 37.6348 107.118 37.9761C107.261 38.3173 107.332 38.6989 107.332 39.1207C107.332 39.3577 107.296 39.5852 107.225 39.8032C107.159 40.0212 107.052 40.2274 106.905 40.4217C106.763 40.6113 106.578 40.7843 106.351 40.9407C106.123 41.0971 105.853 41.2298 105.54 41.3388C106.242 41.5047 106.761 41.7749 107.097 42.1493C107.434 42.5237 107.602 43.0096 107.602 43.6067C107.602 44.0428 107.517 44.448 107.346 44.8225C107.18 45.1969 106.936 45.5215 106.614 45.7964C106.291 46.0713 105.893 46.287 105.419 46.4434C104.95 46.5951 104.41 46.6709 103.798 46.6709H99.8028V36.3551H103.464ZM115.27 39.3411V46.6709H114.061C113.81 46.6709 113.649 46.5571 113.578 46.3296L113.45 45.8178C113.303 45.96 113.151 46.0903 112.995 46.2088C112.839 46.3273 112.67 46.4292 112.49 46.5145C112.315 46.5998 112.123 46.6662 111.914 46.7136C111.711 46.761 111.488 46.7846 111.246 46.7846C110.848 46.7846 110.492 46.7159 110.18 46.5785C109.872 46.441 109.613 46.2491 109.405 46.0026C109.196 45.7562 109.037 45.4623 108.928 45.121C108.819 44.7798 108.765 44.4054 108.765 43.9978V39.3411H110.727V43.9978C110.727 44.4054 110.819 44.7229 111.004 44.9504C111.194 45.1732 111.474 45.2846 111.843 45.2846C112.118 45.2846 112.376 45.2253 112.618 45.1068C112.86 44.9836 113.09 44.8177 113.308 44.6092V39.3411H115.27ZM118.909 39.3411V46.6709H116.946V39.3411H118.909ZM119.143 37.258C119.143 37.4239 119.11 37.578 119.044 37.7202C118.977 37.8623 118.887 37.9879 118.774 38.0969C118.665 38.206 118.534 38.2913 118.383 38.3529C118.236 38.4145 118.077 38.4453 117.906 38.4453C117.745 38.4453 117.591 38.4145 117.444 38.3529C117.302 38.2913 117.176 38.206 117.067 38.0969C116.958 37.9879 116.871 37.8623 116.804 37.7202C116.743 37.578 116.712 37.4239 116.712 37.258C116.712 37.0922 116.743 36.9381 116.804 36.7959C116.871 36.649 116.958 36.521 117.067 36.412C117.176 36.303 117.302 36.2177 117.444 36.1561C117.591 36.0945 117.745 36.0637 117.906 36.0637C118.077 36.0637 118.236 36.0945 118.383 36.1561C118.534 36.2177 118.665 36.303 118.774 36.412C118.887 36.521 118.977 36.649 119.044 36.7959C119.11 36.9381 119.143 37.0922 119.143 37.258ZM122.56 36.0708V46.6709H120.597V36.0708H122.56ZM128.722 41.2464C128.537 41.0331 128.336 40.8838 128.118 40.7985C127.905 40.7132 127.677 40.6706 127.435 40.6706C127.198 40.6706 126.983 40.7156 126.788 40.8056C126.594 40.8957 126.426 41.0379 126.284 41.2322C126.146 41.4218 126.039 41.6659 125.964 41.9645C125.888 42.2631 125.85 42.6185 125.85 43.0309C125.85 43.4385 125.881 43.7845 125.942 44.0689C126.004 44.3532 126.092 44.5831 126.205 44.7585C126.324 44.9338 126.466 45.0618 126.632 45.1424C126.798 45.2182 126.983 45.2561 127.186 45.2561C127.532 45.2561 127.822 45.1874 128.054 45.05C128.291 44.9125 128.514 44.7182 128.722 44.467V41.2464ZM130.684 36.0708V46.6709H129.476C129.224 46.6709 129.063 46.5571 128.992 46.3296L128.829 45.6898C128.682 45.8509 128.525 45.9979 128.36 46.1306C128.198 46.2633 128.023 46.3794 127.833 46.4789C127.644 46.5737 127.44 46.6472 127.222 46.6993C127.004 46.7515 126.767 46.7775 126.511 46.7775C126.118 46.7775 125.757 46.6946 125.43 46.5287C125.103 46.3628 124.819 46.1211 124.577 45.8036C124.34 45.4813 124.155 45.0879 124.023 44.6234C123.89 44.1589 123.824 43.6281 123.824 43.0309C123.824 42.4858 123.897 41.9787 124.044 41.5095C124.196 41.0402 124.409 40.635 124.684 40.2938C124.959 39.9525 125.291 39.6847 125.679 39.4904C126.068 39.2961 126.499 39.1989 126.973 39.1989C127.371 39.1989 127.705 39.2582 127.976 39.3766C128.251 39.4951 128.499 39.6563 128.722 39.8601V36.0708H130.684ZM140.248 40.8483C140.196 40.9289 140.141 40.9881 140.084 41.026C140.032 41.0592 139.959 41.0758 139.864 41.0758C139.769 41.0758 139.672 41.0521 139.572 41.0047C139.473 40.9573 139.361 40.9075 139.238 40.8554C139.115 40.7985 138.973 40.7464 138.812 40.699C138.655 40.6516 138.473 40.6279 138.264 40.6279C137.947 40.6279 137.7 40.6943 137.525 40.827C137.35 40.9549 137.262 41.1256 137.262 41.3388C137.262 41.4858 137.312 41.609 137.411 41.7085C137.511 41.8081 137.641 41.8957 137.802 41.9716C137.968 42.0427 138.155 42.1114 138.364 42.1778C138.572 42.2394 138.786 42.3081 139.004 42.3839C139.226 42.4598 139.442 42.5474 139.651 42.647C139.859 42.7465 140.044 42.8721 140.205 43.0238C140.371 43.1707 140.504 43.3508 140.603 43.5641C140.703 43.7726 140.753 44.0262 140.753 44.3248C140.753 44.6803 140.686 45.0097 140.553 45.313C140.426 45.6116 140.236 45.8699 139.985 46.0879C139.734 46.3059 139.421 46.4766 139.046 46.5998C138.672 46.723 138.241 46.7846 137.752 46.7846C137.501 46.7846 137.252 46.761 137.006 46.7136C136.759 46.6709 136.525 46.6093 136.302 46.5287C136.079 46.4434 135.871 46.3462 135.676 46.2372C135.482 46.1282 135.314 46.0097 135.172 45.8818L135.627 45.1495C135.679 45.0642 135.743 44.9978 135.819 44.9504C135.899 44.903 136.001 44.8793 136.124 44.8793C136.243 44.8793 136.352 44.9101 136.451 44.9717C136.551 45.0286 136.662 45.0926 136.786 45.1637C136.909 45.2301 137.053 45.294 137.219 45.3557C137.39 45.4125 137.601 45.441 137.852 45.441C138.041 45.441 138.205 45.4196 138.342 45.377C138.48 45.3343 138.591 45.2775 138.677 45.2064C138.762 45.1305 138.824 45.0476 138.861 44.9575C138.904 44.8627 138.925 44.7656 138.925 44.666C138.925 44.5049 138.873 44.3746 138.769 44.275C138.669 44.1708 138.537 44.0807 138.371 44.0049C138.21 43.929 138.023 43.8603 137.809 43.7987C137.596 43.7371 137.378 43.6684 137.155 43.5925C136.937 43.5167 136.722 43.4266 136.508 43.3224C136.3 43.2181 136.112 43.0878 135.947 42.9313C135.785 42.7702 135.653 42.5735 135.548 42.3413C135.449 42.109 135.399 41.827 135.399 41.4952C135.399 41.1919 135.458 40.9052 135.577 40.635C135.695 40.3601 135.873 40.1184 136.11 39.9098C136.347 39.7013 136.641 39.5354 136.992 39.4122C137.347 39.289 137.757 39.2273 138.222 39.2273C138.743 39.2273 139.217 39.3127 139.643 39.4833C140.07 39.6539 140.421 39.8767 140.696 40.1516L140.248 40.8483ZM145.287 39.2273C145.836 39.2273 146.337 39.315 146.787 39.4904C147.237 39.6658 147.623 39.917 147.946 40.244C148.268 40.5663 148.517 40.9597 148.692 41.4242C148.867 41.8886 148.955 42.4124 148.955 42.9953C148.955 43.5783 148.867 44.1044 148.692 44.5736C148.517 45.0381 148.268 45.4339 147.946 45.7609C147.623 46.0879 147.237 46.3391 146.787 46.5145C146.337 46.6899 145.836 46.7775 145.287 46.7775C144.732 46.7775 144.227 46.6899 143.772 46.5145C143.322 46.3391 142.936 46.0879 142.614 45.7609C142.291 45.4339 142.04 45.0381 141.86 44.5736C141.685 44.1044 141.597 43.5783 141.597 42.9953C141.597 42.4124 141.685 41.8886 141.86 41.4242C142.04 40.9597 142.291 40.5663 142.614 40.244C142.936 39.917 143.322 39.6658 143.772 39.4904C144.227 39.315 144.732 39.2273 145.287 39.2273ZM145.287 45.3059C145.846 45.3059 146.261 45.1139 146.531 44.73C146.801 44.3414 146.936 43.7655 146.936 43.0024C146.936 42.2441 146.801 41.673 146.531 41.2891C146.261 40.9004 145.846 40.7061 145.287 40.7061C144.713 40.7061 144.291 40.9004 144.021 41.2891C143.751 41.673 143.616 42.2441 143.616 43.0024C143.616 43.7655 143.751 44.3414 144.021 44.73C144.291 45.1139 144.713 45.3059 145.287 45.3059ZM150.187 46.6709V39.3411H151.396C151.642 39.3411 151.806 39.4548 151.886 39.6823L152 40.1587C152.128 40.026 152.258 39.9027 152.391 39.789C152.529 39.6752 152.675 39.5781 152.832 39.4975C152.988 39.4122 153.157 39.3458 153.337 39.2984C153.521 39.251 153.721 39.2273 153.934 39.2273C154.384 39.2273 154.756 39.3482 155.05 39.5899C155.344 39.8269 155.567 40.1445 155.718 40.5426C155.837 40.3103 155.981 40.1113 156.152 39.9454C156.327 39.7748 156.517 39.6373 156.721 39.5331C156.929 39.4288 157.147 39.3529 157.375 39.3055C157.607 39.2534 157.839 39.2273 158.072 39.2273C158.484 39.2273 158.849 39.289 159.166 39.4122C159.484 39.5354 159.749 39.7179 159.963 39.9596C160.181 40.1966 160.347 40.4881 160.46 40.8341C160.574 41.1801 160.631 41.5735 160.631 42.0142V46.6709H158.669V42.0142C158.669 41.1564 158.301 40.7274 157.567 40.7274C157.401 40.7274 157.247 40.7559 157.105 40.8127C156.967 40.8649 156.844 40.9455 156.735 41.0545C156.631 41.1635 156.548 41.2986 156.486 41.4597C156.429 41.6208 156.401 41.8057 156.401 42.0142V46.6709H154.439V42.0142C154.439 41.5498 154.346 41.2204 154.161 41.026C153.981 40.827 153.713 40.7274 153.358 40.7274C153.13 40.7274 152.915 40.7819 152.711 40.8909C152.512 40.9952 152.325 41.1421 152.149 41.3317V46.6709H150.187ZM166.834 42.1422C166.834 41.9384 166.805 41.7441 166.749 41.5592C166.696 41.3744 166.611 41.2109 166.493 41.0687C166.374 40.9265 166.225 40.8151 166.045 40.7345C165.865 40.6492 165.649 40.6066 165.398 40.6066C164.929 40.6066 164.561 40.7393 164.296 41.0047C164.03 41.2701 163.857 41.6493 163.777 42.1422H166.834ZM163.748 43.3081C163.81 43.9954 164.004 44.4978 164.331 44.8153C164.663 45.1329 165.094 45.2917 165.625 45.2917C165.895 45.2917 166.128 45.2609 166.322 45.1993C166.521 45.1329 166.694 45.0618 166.841 44.986C166.993 44.9054 167.128 44.8343 167.246 44.7727C167.369 44.7063 167.49 44.6732 167.609 44.6732C167.76 44.6732 167.879 44.73 167.964 44.8438L168.533 45.5547C168.324 45.7964 168.095 45.9979 167.843 46.159C167.592 46.3154 167.332 46.441 167.061 46.5358C166.791 46.6259 166.519 46.6875 166.244 46.7207C165.969 46.7586 165.703 46.7775 165.448 46.7775C164.936 46.7775 164.457 46.6946 164.011 46.5287C163.571 46.3581 163.184 46.1093 162.853 45.7822C162.526 45.4504 162.267 45.0405 162.078 44.5523C161.888 44.0641 161.793 43.4977 161.793 42.8531C161.793 42.3555 161.874 41.8863 162.035 41.4455C162.201 41.0047 162.438 40.6208 162.746 40.2938C163.054 39.9667 163.428 39.7084 163.869 39.5188C164.31 39.3245 164.808 39.2273 165.362 39.2273C165.831 39.2273 166.263 39.3032 166.656 39.4548C167.054 39.6018 167.396 39.8174 167.68 40.1018C167.969 40.3862 168.192 40.7369 168.348 41.154C168.509 41.5663 168.59 42.0379 168.59 42.5688C168.59 42.7157 168.583 42.8366 168.569 42.9313C168.554 43.0261 168.531 43.102 168.497 43.1588C168.464 43.2157 168.419 43.256 168.362 43.2797C168.306 43.2987 168.232 43.3081 168.142 43.3081H163.748ZM172.255 46.7846C171.923 46.7846 171.629 46.7373 171.374 46.6425C171.118 46.5429 170.902 46.4031 170.727 46.223C170.551 46.0429 170.419 45.8249 170.328 45.5689C170.238 45.313 170.193 45.0239 170.193 44.7016V40.7488H169.504C169.4 40.7488 169.309 40.7156 169.234 40.6492C169.163 40.5829 169.127 40.4833 169.127 40.3506V39.5828L170.3 39.3695L170.698 37.4713C170.75 37.258 170.895 37.1514 171.132 37.1514H172.156V39.3838H174.047V40.7488H172.156V44.5736C172.156 44.7774 172.203 44.9386 172.298 45.0571C172.397 45.1756 172.537 45.2348 172.717 45.2348C172.812 45.2348 172.893 45.2253 172.959 45.2064C173.025 45.1827 173.082 45.159 173.13 45.1353C173.177 45.1068 173.22 45.0831 173.258 45.0642C173.3 45.0405 173.343 45.0286 173.386 45.0286C173.442 45.0286 173.49 45.0428 173.528 45.0713C173.566 45.095 173.604 45.1376 173.641 45.1993L174.232 46.1377C173.961 46.351 173.656 46.5121 173.314 46.6211C172.973 46.7301 172.62 46.7846 172.255 46.7846ZM177.06 40.0591C177.198 39.9359 177.34 39.8245 177.487 39.725C177.638 39.6207 177.797 39.5331 177.963 39.462C178.134 39.3861 178.314 39.3292 178.503 39.2913C178.698 39.2487 178.906 39.2273 179.129 39.2273C179.527 39.2273 179.88 39.2961 180.188 39.4335C180.496 39.571 180.755 39.7629 180.963 40.0094C181.176 40.2558 181.335 40.5497 181.439 40.8909C181.548 41.2322 181.603 41.6066 181.603 42.0142V46.6709H179.648V42.0142C179.648 41.6066 179.553 41.2914 179.364 41.0687C179.174 40.8412 178.894 40.7274 178.525 40.7274C178.25 40.7274 177.991 40.7867 177.75 40.9052C177.508 41.0237 177.278 41.1895 177.06 41.4028V46.6709H175.098V36.0708H177.06V40.0591ZM185.184 39.3411V46.6709H183.222V39.3411H185.184ZM185.419 37.258C185.419 37.4239 185.386 37.578 185.32 37.7202C185.253 37.8623 185.163 37.9879 185.049 38.0969C184.94 38.206 184.81 38.2913 184.658 38.3529C184.511 38.4145 184.353 38.4453 184.182 38.4453C184.021 38.4453 183.867 38.4145 183.72 38.3529C183.578 38.2913 183.452 38.206 183.343 38.0969C183.234 37.9879 183.146 37.8623 183.08 37.7202C183.018 37.578 182.988 37.4239 182.988 37.258C182.988 37.0922 183.018 36.9381 183.08 36.7959C183.146 36.649 183.234 36.521 183.343 36.412C183.452 36.303 183.578 36.2177 183.72 36.1561C183.867 36.0945 184.021 36.0637 184.182 36.0637C184.353 36.0637 184.511 36.0945 184.658 36.1561C184.81 36.2177 184.94 36.303 185.049 36.412C185.163 36.521 185.253 36.649 185.32 36.7959C185.386 36.9381 185.419 37.0922 185.419 37.258ZM188.679 40.1942C188.826 40.052 188.978 39.9217 189.134 39.8032C189.295 39.6847 189.463 39.5828 189.639 39.4975C189.819 39.4122 190.011 39.3458 190.215 39.2984C190.423 39.251 190.648 39.2273 190.89 39.2273C191.288 39.2273 191.641 39.2961 191.949 39.4335C192.257 39.571 192.516 39.7629 192.724 40.0094C192.938 40.2558 193.096 40.5497 193.201 40.8909C193.31 41.2322 193.364 41.6066 193.364 42.0142V46.6709H191.409V42.0142C191.409 41.6066 191.314 41.2914 191.125 41.0687C190.935 40.8412 190.655 40.7274 190.286 40.7274C190.011 40.7274 189.752 40.7867 189.511 40.9052C189.269 41.0237 189.039 41.1895 188.821 41.4028V46.6709H186.859V39.3411H188.068C188.314 39.3411 188.478 39.4548 188.558 39.6823L188.679 40.1942ZM197.656 42.7323C198.059 42.7323 198.356 42.6304 198.545 42.4266C198.739 42.2228 198.837 41.9597 198.837 41.6374C198.837 41.3009 198.739 41.0379 198.545 40.8483C198.356 40.654 198.059 40.5568 197.656 40.5568C197.254 40.5568 196.957 40.654 196.768 40.8483C196.578 41.0379 196.483 41.3009 196.483 41.6374C196.483 41.955 196.578 42.218 196.768 42.4266C196.962 42.6304 197.258 42.7323 197.656 42.7323ZM199.512 46.9695C199.512 46.8415 199.472 46.7373 199.391 46.6567C199.311 46.5761 199.202 46.5121 199.064 46.4647C198.931 46.4173 198.773 46.3842 198.588 46.3652C198.403 46.3415 198.206 46.3249 197.998 46.3154C197.789 46.3012 197.574 46.2894 197.351 46.2799C197.128 46.2704 196.91 46.2538 196.697 46.2301C196.531 46.3296 196.393 46.4481 196.284 46.5856C196.18 46.7183 196.128 46.87 196.128 47.0406C196.128 47.1591 196.154 47.2681 196.206 47.3676C196.263 47.4672 196.355 47.5525 196.483 47.6236C196.611 47.6947 196.78 47.7492 196.988 47.7871C197.197 47.8297 197.457 47.8511 197.77 47.8511C198.093 47.8511 198.365 47.8297 198.588 47.7871C198.811 47.7444 198.991 47.6828 199.128 47.6022C199.266 47.5264 199.363 47.434 199.42 47.325C199.481 47.216 199.512 47.0975 199.512 46.9695ZM201.46 39.5828V40.3009C201.46 40.4146 201.427 40.5047 201.36 40.571C201.299 40.6374 201.195 40.6871 201.048 40.7203L200.45 40.8412C200.531 41.0734 200.571 41.3223 200.571 41.5877C200.571 41.9526 200.496 42.282 200.344 42.5759C200.197 42.865 199.993 43.1138 199.732 43.3224C199.472 43.5262 199.164 43.6849 198.808 43.7987C198.453 43.9077 198.069 43.9622 197.656 43.9622C197.396 43.9622 197.152 43.9409 196.924 43.8982C196.725 44.0215 196.626 44.1565 196.626 44.3035C196.626 44.4409 196.692 44.5404 196.825 44.6021C196.962 44.6637 197.14 44.7087 197.358 44.7371C197.581 44.7608 197.832 44.7774 198.111 44.7869C198.396 44.7916 198.683 44.8059 198.972 44.8296C199.266 44.8533 199.552 44.8959 199.832 44.9575C200.116 45.0144 200.368 45.1116 200.586 45.249C200.808 45.3817 200.986 45.5595 201.119 45.7822C201.256 46.005 201.325 46.2917 201.325 46.6425C201.325 46.9695 201.244 47.287 201.083 47.5951C200.922 47.9032 200.687 48.1781 200.379 48.4198C200.076 48.6615 199.702 48.8559 199.256 49.0028C198.811 49.1497 198.303 49.2232 197.735 49.2232C197.171 49.2232 196.68 49.1687 196.263 49.0597C195.851 48.9554 195.507 48.8132 195.232 48.6331C194.962 48.4577 194.761 48.2539 194.628 48.0217C194.495 47.7894 194.429 47.5477 194.429 47.2965C194.429 46.9695 194.528 46.6922 194.727 46.4647C194.926 46.2372 195.201 46.0547 195.552 45.9173C195.367 45.813 195.218 45.678 195.104 45.5121C194.995 45.3414 194.941 45.121 194.941 44.8509C194.941 44.6329 195.019 44.403 195.175 44.1613C195.336 43.9196 195.583 43.7181 195.915 43.557C195.54 43.3579 195.244 43.0925 195.026 42.7607C194.808 42.4242 194.699 42.0332 194.699 41.5877C194.699 41.2227 194.772 40.8933 194.919 40.5995C195.071 40.3056 195.28 40.0568 195.545 39.853C195.81 39.6444 196.123 39.4857 196.483 39.3766C196.844 39.2676 197.235 39.2131 197.656 39.2131C198.282 39.2131 198.834 39.3364 199.313 39.5828H201.46ZM209.686 43.6067C209.208 43.6304 208.81 43.6731 208.492 43.7347C208.174 43.7916 207.921 43.8674 207.731 43.9622C207.546 44.057 207.414 44.166 207.333 44.2892C207.257 44.4077 207.219 44.5381 207.219 44.6803C207.219 44.9646 207.298 45.1661 207.454 45.2846C207.615 45.4031 207.838 45.4623 208.122 45.4623C208.449 45.4623 208.731 45.4054 208.968 45.2917C209.21 45.1732 209.449 44.9907 209.686 44.7442V43.6067ZM205.691 40.3577C206.122 39.9691 206.599 39.68 207.12 39.4904C207.641 39.2961 208.205 39.1989 208.812 39.1989C209.248 39.1989 209.637 39.27 209.978 39.4122C210.324 39.5544 210.615 39.7534 210.852 40.0094C211.094 40.2606 211.279 40.5615 211.407 40.9123C211.535 41.263 211.599 41.6469 211.599 42.064V46.6709H210.703C210.518 46.6709 210.376 46.6448 210.276 46.5927C210.182 46.5406 210.103 46.4315 210.042 46.2657L209.885 45.7964C209.701 45.9576 209.521 46.0998 209.345 46.223C209.175 46.3462 208.997 46.4505 208.812 46.5358C208.627 46.6164 208.428 46.678 208.215 46.7207C208.006 46.7633 207.772 46.7846 207.511 46.7846C207.189 46.7846 206.895 46.742 206.629 46.6567C206.364 46.5714 206.134 46.4458 205.94 46.2799C205.75 46.1093 205.603 45.8983 205.499 45.6471C205.395 45.3959 205.343 45.1068 205.343 44.7798C205.343 44.5096 205.411 44.2395 205.549 43.9693C205.686 43.6992 205.921 43.4551 206.253 43.2371C206.589 43.0143 207.035 42.8318 207.589 42.6896C208.148 42.5427 208.847 42.4598 209.686 42.4408V42.064C209.686 41.6043 209.589 41.2677 209.395 41.0545C209.201 40.8364 208.921 40.7274 208.556 40.7274C208.286 40.7274 208.061 40.7606 207.881 40.827C207.7 40.8886 207.542 40.9573 207.404 41.0331C207.272 41.1042 207.146 41.173 207.027 41.2393C206.909 41.3009 206.772 41.3317 206.615 41.3317C206.478 41.3317 206.362 41.2986 206.267 41.2322C206.177 41.1611 206.101 41.0782 206.039 40.9834L205.691 40.3577ZM213.13 46.6709V39.3411H214.339C214.586 39.3411 214.749 39.4548 214.83 39.6823L214.943 40.1587C215.071 40.026 215.202 39.9027 215.334 39.789C215.472 39.6752 215.619 39.5781 215.775 39.4975C215.932 39.4122 216.1 39.3458 216.28 39.2984C216.465 39.251 216.664 39.2273 216.877 39.2273C217.327 39.2273 217.699 39.3482 217.993 39.5899C218.287 39.8269 218.51 40.1445 218.662 40.5426C218.78 40.3103 218.925 40.1113 219.095 39.9454C219.271 39.7748 219.46 39.6373 219.664 39.5331C219.873 39.4288 220.091 39.3529 220.318 39.3055C220.55 39.2534 220.783 39.2273 221.015 39.2273C221.427 39.2273 221.792 39.289 222.11 39.4122C222.427 39.5354 222.693 39.7179 222.906 39.9596C223.124 40.1966 223.29 40.4881 223.404 40.8341C223.517 41.1801 223.574 41.5735 223.574 42.0142V46.6709H221.612V42.0142C221.612 41.1564 221.245 40.7274 220.51 40.7274C220.344 40.7274 220.19 40.7559 220.048 40.8127C219.91 40.8649 219.787 40.9455 219.678 41.0545C219.574 41.1635 219.491 41.2986 219.429 41.4597C219.373 41.6208 219.344 41.8057 219.344 42.0142V46.6709H217.382V42.0142C217.382 41.5498 217.289 41.2204 217.105 41.026C216.925 40.827 216.657 40.7274 216.301 40.7274C216.074 40.7274 215.858 40.7819 215.654 40.8909C215.455 40.9952 215.268 41.1421 215.093 41.3317V46.6709H213.13ZM228.96 43.6067C228.481 43.6304 228.083 43.6731 227.765 43.7347C227.448 43.7916 227.194 43.8674 227.004 43.9622C226.82 44.057 226.687 44.166 226.606 44.2892C226.531 44.4077 226.493 44.5381 226.493 44.6803C226.493 44.9646 226.571 45.1661 226.727 45.2846C226.888 45.4031 227.111 45.4623 227.395 45.4623C227.723 45.4623 228.005 45.4054 228.242 45.2917C228.483 45.1732 228.723 44.9907 228.96 44.7442V43.6067ZM224.964 40.3577C225.395 39.9691 225.872 39.68 226.393 39.4904C226.914 39.2961 227.478 39.1989 228.085 39.1989C228.521 39.1989 228.91 39.27 229.251 39.4122C229.597 39.5544 229.889 39.7534 230.126 40.0094C230.367 40.2606 230.552 40.5615 230.68 40.9123C230.808 41.263 230.872 41.6469 230.872 42.064V46.6709H229.976C229.791 46.6709 229.649 46.6448 229.55 46.5927C229.455 46.5406 229.377 46.4315 229.315 46.2657L229.159 45.7964C228.974 45.9576 228.794 46.0998 228.618 46.223C228.448 46.3462 228.27 46.4505 228.085 46.5358C227.9 46.6164 227.701 46.678 227.488 46.7207C227.279 46.7633 227.045 46.7846 226.784 46.7846C226.462 46.7846 226.168 46.742 225.903 46.6567C225.637 46.5714 225.407 46.4458 225.213 46.2799C225.023 46.1093 224.876 45.8983 224.772 45.6471C224.668 45.3959 224.616 45.1068 224.616 44.7798C224.616 44.5096 224.684 44.2395 224.822 43.9693C224.959 43.6992 225.194 43.4551 225.526 43.2371C225.862 43.0143 226.308 42.8318 226.862 42.6896C227.422 42.5427 228.121 42.4598 228.96 42.4408V42.064C228.96 41.6043 228.862 41.2677 228.668 41.0545C228.474 40.8364 228.194 40.7274 227.829 40.7274C227.559 40.7274 227.334 40.7606 227.154 40.827C226.974 40.8886 226.815 40.9573 226.677 41.0331C226.545 41.1042 226.419 41.173 226.301 41.2393C226.182 41.3009 226.045 41.3317 225.888 41.3317C225.751 41.3317 225.635 41.2986 225.54 41.2322C225.45 41.1611 225.374 41.0782 225.312 40.9834L224.964 40.3577ZM237.757 40.1374C237.757 40.2748 237.733 40.4099 237.686 40.5426C237.639 40.6706 237.577 40.7748 237.501 40.8554L234.209 45.1921H237.665V46.6709H231.942V45.8604C231.942 45.7799 231.963 45.678 232.006 45.5547C232.053 45.4315 232.117 45.3154 232.197 45.2064L235.518 40.8199H232.148V39.3411H237.757V40.1374ZM241.004 39.3411V46.6709H239.042V39.3411H241.004ZM241.239 37.258C241.239 37.4239 241.206 37.578 241.14 37.7202C241.073 37.8623 240.983 37.9879 240.869 38.0969C240.76 38.206 240.63 38.2913 240.478 38.3529C240.331 38.4145 240.173 38.4453 240.002 38.4453C239.841 38.4453 239.687 38.4145 239.54 38.3529C239.398 38.2913 239.272 38.206 239.163 38.0969C239.054 37.9879 238.966 37.8623 238.9 37.7202C238.838 37.578 238.808 37.4239 238.808 37.258C238.808 37.0922 238.838 36.9381 238.9 36.7959C238.966 36.649 239.054 36.521 239.163 36.412C239.272 36.303 239.398 36.2177 239.54 36.1561C239.687 36.0945 239.841 36.0637 240.002 36.0637C240.173 36.0637 240.331 36.0945 240.478 36.1561C240.63 36.2177 240.76 36.303 240.869 36.412C240.983 36.521 241.073 36.649 241.14 36.7959C241.206 36.9381 241.239 37.0922 241.239 37.258ZM244.499 40.1942C244.646 40.052 244.798 39.9217 244.954 39.8032C245.115 39.6847 245.283 39.5828 245.459 39.4975C245.639 39.4122 245.831 39.3458 246.035 39.2984C246.243 39.251 246.468 39.2273 246.71 39.2273C247.108 39.2273 247.461 39.2961 247.769 39.4335C248.077 39.571 248.336 39.7629 248.544 40.0094C248.757 40.2558 248.916 40.5497 249.021 40.8909C249.13 41.2322 249.184 41.6066 249.184 42.0142V46.6709H247.229V42.0142C247.229 41.6066 247.134 41.2914 246.945 41.0687C246.755 40.8412 246.475 40.7274 246.106 40.7274C245.831 40.7274 245.572 40.7867 245.331 40.9052C245.089 41.0237 244.859 41.1895 244.641 41.4028V46.6709H242.679V39.3411H243.888C244.134 39.3411 244.298 39.4548 244.378 39.6823L244.499 40.1942ZM253.476 42.7323C253.879 42.7323 254.176 42.6304 254.365 42.4266C254.559 42.2228 254.657 41.9597 254.657 41.6374C254.657 41.3009 254.559 41.0379 254.365 40.8483C254.176 40.654 253.879 40.5568 253.476 40.5568C253.074 40.5568 252.777 40.654 252.588 40.8483C252.398 41.0379 252.303 41.3009 252.303 41.6374C252.303 41.955 252.398 42.218 252.588 42.4266C252.782 42.6304 253.078 42.7323 253.476 42.7323ZM255.332 46.9695C255.332 46.8415 255.292 46.7373 255.211 46.6567C255.131 46.5761 255.022 46.5121 254.884 46.4647C254.751 46.4173 254.593 46.3842 254.408 46.3652C254.223 46.3415 254.026 46.3249 253.818 46.3154C253.609 46.3012 253.394 46.2894 253.171 46.2799C252.948 46.2704 252.73 46.2538 252.517 46.2301C252.351 46.3296 252.213 46.4481 252.104 46.5856C252 46.7183 251.948 46.87 251.948 47.0406C251.948 47.1591 251.974 47.2681 252.026 47.3676C252.083 47.4672 252.175 47.5525 252.303 47.6236C252.431 47.6947 252.6 47.7492 252.808 47.7871C253.017 47.8297 253.277 47.8511 253.59 47.8511C253.913 47.8511 254.185 47.8297 254.408 47.7871C254.631 47.7444 254.811 47.6828 254.948 47.6022C255.086 47.5264 255.183 47.434 255.24 47.325C255.301 47.216 255.332 47.0975 255.332 46.9695ZM257.28 39.5828V40.3009C257.28 40.4146 257.247 40.5047 257.18 40.571C257.119 40.6374 257.015 40.6871 256.868 40.7203L256.27 40.8412C256.351 41.0734 256.391 41.3223 256.391 41.5877C256.391 41.9526 256.316 42.282 256.164 42.5759C256.017 42.865 255.813 43.1138 255.552 43.3224C255.292 43.5262 254.984 43.6849 254.628 43.7987C254.273 43.9077 253.889 43.9622 253.476 43.9622C253.216 43.9622 252.972 43.9409 252.744 43.8982C252.545 44.0215 252.446 44.1565 252.446 44.3035C252.446 44.4409 252.512 44.5404 252.645 44.6021C252.782 44.6637 252.96 44.7087 253.178 44.7371C253.401 44.7608 253.652 44.7774 253.931 44.7869C254.216 44.7916 254.503 44.8059 254.792 44.8296C255.086 44.8533 255.372 44.8959 255.652 44.9575C255.936 45.0144 256.188 45.1116 256.406 45.249C256.628 45.3817 256.806 45.5595 256.939 45.7822C257.076 46.005 257.145 46.2917 257.145 46.6425C257.145 46.9695 257.064 47.287 256.903 47.5951C256.742 47.9032 256.507 48.1781 256.199 48.4198C255.896 48.6615 255.522 48.8559 255.076 49.0028C254.631 49.1497 254.123 49.2232 253.555 49.2232C252.991 49.2232 252.5 49.1687 252.083 49.0597C251.671 48.9554 251.327 48.8132 251.052 48.6331C250.782 48.4577 250.581 48.2539 250.448 48.0217C250.315 47.7894 250.249 47.5477 250.249 47.2965C250.249 46.9695 250.348 46.6922 250.547 46.4647C250.746 46.2372 251.021 46.0547 251.372 45.9173C251.187 45.813 251.038 45.678 250.924 45.5121C250.815 45.3414 250.761 45.121 250.761 44.8509C250.761 44.6329 250.839 44.403 250.995 44.1613C251.156 43.9196 251.403 43.7181 251.735 43.557C251.36 43.3579 251.064 43.0925 250.846 42.7607C250.628 42.4242 250.519 42.0332 250.519 41.5877C250.519 41.2227 250.592 40.8933 250.739 40.5995C250.891 40.3056 251.1 40.0568 251.365 39.853C251.63 39.6444 251.943 39.4857 252.303 39.3766C252.664 39.2676 253.055 39.2131 253.476 39.2131C254.102 39.2131 254.654 39.3364 255.133 39.5828H257.28Z"
            fill="#1D1C1D" />
        <rect x="42.7222" y="57.9908" width="271" height="5" rx="2.5" fill="#E6E2D9" />
        <rect x="69.2222" y="71.3109" width="218" height="5" rx="2.5" fill="#E6E2D9" />
        <rect x="58.7222" y="84.6309" width="239" height="5" rx="2.5" fill="#E6E2D9" />
        <rect x="121.264" y="102.27" width="113.917" height="29.0591" rx="2.3698" fill="#007A5A" />
        <path
            d="M147.439 118.684C147.537 118.684 147.62 118.72 147.687 118.791L148.393 119.543C148.045 119.986 147.612 120.322 147.095 120.551C146.582 120.78 145.969 120.894 145.258 120.894C144.615 120.894 144.036 120.786 143.523 120.568C143.009 120.347 142.573 120.041 142.213 119.65C141.854 119.259 141.577 118.795 141.384 118.258C141.19 117.721 141.094 117.134 141.094 116.498C141.094 116.072 141.139 115.667 141.23 115.284C141.325 114.897 141.461 114.541 141.639 114.217C141.816 113.893 142.03 113.601 142.278 113.34C142.531 113.08 142.816 112.859 143.132 112.677C143.448 112.491 143.791 112.351 144.162 112.256C144.538 112.158 144.937 112.108 145.359 112.108C145.675 112.108 145.973 112.136 146.254 112.191C146.538 112.246 146.803 112.323 147.048 112.422C147.293 112.521 147.518 112.641 147.723 112.784C147.932 112.922 148.12 113.074 148.286 113.24L147.687 114.057C147.652 114.109 147.607 114.154 147.551 114.194C147.496 114.233 147.421 114.253 147.326 114.253C147.231 114.253 147.135 114.219 147.036 114.152C146.941 114.085 146.823 114.01 146.68 113.927C146.542 113.844 146.366 113.769 146.153 113.702C145.944 113.635 145.677 113.601 145.353 113.601C144.994 113.601 144.664 113.666 144.364 113.797C144.064 113.927 143.805 114.117 143.588 114.365C143.374 114.61 143.209 114.912 143.09 115.272C142.972 115.631 142.912 116.04 142.912 116.498C142.912 116.96 142.976 117.373 143.102 117.736C143.232 118.096 143.408 118.4 143.629 118.649C143.854 118.898 144.115 119.087 144.411 119.218C144.711 119.344 145.031 119.407 145.371 119.407C145.572 119.407 145.754 119.397 145.916 119.378C146.082 119.358 146.234 119.324 146.372 119.277C146.514 119.229 146.647 119.168 146.769 119.093C146.896 119.018 147.022 118.923 147.148 118.809C147.192 118.773 147.237 118.744 147.285 118.72C147.332 118.696 147.383 118.684 147.439 118.684ZM150.694 115.698C150.887 115.351 151.11 115.076 151.363 114.875C151.616 114.673 151.912 114.573 152.252 114.573C152.528 114.573 152.753 114.638 152.927 114.768L152.821 115.977C152.801 116.056 152.769 116.111 152.726 116.143C152.686 116.17 152.631 116.184 152.56 116.184C152.497 116.184 152.406 116.176 152.287 116.161C152.169 116.141 152.058 116.131 151.956 116.131C151.805 116.131 151.671 116.153 151.553 116.196C151.438 116.24 151.335 116.301 151.245 116.38C151.154 116.459 151.071 116.556 150.996 116.67C150.925 116.785 150.858 116.915 150.794 117.061V120.799H149.159V114.691H150.125C150.291 114.691 150.405 114.721 150.469 114.78C150.532 114.839 150.577 114.942 150.605 115.088L150.694 115.698ZM157.361 117.026C157.361 116.856 157.338 116.694 157.29 116.54C157.247 116.386 157.176 116.249 157.077 116.131C156.978 116.012 156.854 115.92 156.704 115.852C156.554 115.781 156.374 115.746 156.165 115.746C155.774 115.746 155.468 115.856 155.246 116.078C155.025 116.299 154.881 116.615 154.814 117.026H157.361ZM154.79 117.997C154.842 118.57 155.004 118.989 155.276 119.253C155.553 119.518 155.912 119.65 156.354 119.65C156.579 119.65 156.773 119.624 156.935 119.573C157.101 119.518 157.245 119.459 157.367 119.395C157.494 119.328 157.606 119.269 157.705 119.218C157.808 119.162 157.909 119.135 158.007 119.135C158.134 119.135 158.232 119.182 158.303 119.277L158.777 119.869C158.604 120.071 158.412 120.239 158.203 120.373C157.993 120.503 157.776 120.608 157.551 120.687C157.326 120.762 157.099 120.813 156.87 120.841C156.641 120.873 156.419 120.888 156.206 120.888C155.78 120.888 155.381 120.819 155.009 120.681C154.642 120.539 154.32 120.331 154.044 120.059C153.771 119.782 153.556 119.441 153.398 119.034C153.24 118.627 153.161 118.155 153.161 117.618C153.161 117.203 153.228 116.812 153.362 116.445C153.501 116.078 153.698 115.758 153.955 115.485C154.212 115.213 154.524 114.997 154.891 114.839C155.258 114.677 155.673 114.596 156.135 114.596C156.526 114.596 156.886 114.66 157.213 114.786C157.545 114.909 157.83 115.088 158.066 115.325C158.307 115.562 158.493 115.854 158.623 116.202C158.758 116.546 158.825 116.939 158.825 117.381C158.825 117.503 158.819 117.604 158.807 117.683C158.795 117.762 158.775 117.825 158.748 117.873C158.72 117.92 158.683 117.954 158.635 117.973C158.588 117.989 158.527 117.997 158.452 117.997H154.79ZM163.033 118.246C162.634 118.266 162.302 118.301 162.037 118.353C161.773 118.4 161.562 118.463 161.404 118.542C161.25 118.621 161.139 118.712 161.072 118.815C161.009 118.913 160.977 119.022 160.977 119.141C160.977 119.378 161.042 119.545 161.173 119.644C161.307 119.743 161.492 119.792 161.729 119.792C162.002 119.792 162.237 119.745 162.434 119.65C162.636 119.551 162.835 119.399 163.033 119.194V118.246ZM159.703 115.538C160.063 115.215 160.46 114.974 160.894 114.816C161.329 114.654 161.799 114.573 162.304 114.573C162.667 114.573 162.991 114.632 163.276 114.751C163.564 114.869 163.807 115.035 164.004 115.248C164.206 115.458 164.36 115.708 164.467 116.001C164.573 116.293 164.627 116.613 164.627 116.96V120.799H163.88C163.726 120.799 163.607 120.778 163.525 120.734C163.446 120.691 163.38 120.6 163.329 120.462L163.199 120.071C163.045 120.205 162.895 120.324 162.748 120.426C162.606 120.529 162.458 120.616 162.304 120.687C162.15 120.754 161.984 120.805 161.806 120.841C161.633 120.876 161.437 120.894 161.22 120.894C160.951 120.894 160.706 120.859 160.485 120.788C160.264 120.716 160.073 120.612 159.911 120.474C159.753 120.331 159.63 120.156 159.543 119.946C159.456 119.737 159.413 119.496 159.413 119.224C159.413 118.998 159.47 118.773 159.585 118.548C159.699 118.323 159.895 118.12 160.171 117.938C160.452 117.752 160.823 117.6 161.285 117.482C161.751 117.359 162.334 117.29 163.033 117.274V116.96C163.033 116.577 162.952 116.297 162.79 116.119C162.628 115.937 162.395 115.847 162.091 115.847C161.866 115.847 161.678 115.874 161.528 115.929C161.378 115.981 161.246 116.038 161.131 116.101C161.02 116.161 160.916 116.218 160.817 116.273C160.718 116.324 160.604 116.35 160.473 116.35C160.359 116.35 160.262 116.322 160.183 116.267C160.108 116.208 160.045 116.139 159.994 116.06L159.703 115.538ZM167.919 120.894C167.643 120.894 167.398 120.855 167.185 120.776C166.971 120.693 166.792 120.576 166.646 120.426C166.5 120.276 166.389 120.094 166.314 119.881C166.239 119.668 166.201 119.427 166.201 119.158V115.864H165.627C165.54 115.864 165.465 115.837 165.402 115.781C165.342 115.726 165.313 115.643 165.313 115.533V114.893L166.29 114.715L166.622 113.133C166.665 112.955 166.786 112.867 166.983 112.867H167.836V114.727H169.412V115.864H167.836V119.052C167.836 119.222 167.876 119.356 167.955 119.455C168.038 119.553 168.154 119.603 168.305 119.603C168.384 119.603 168.451 119.595 168.506 119.579C168.561 119.559 168.609 119.539 168.648 119.52C168.688 119.496 168.723 119.476 168.755 119.46C168.79 119.441 168.826 119.431 168.861 119.431C168.909 119.431 168.948 119.443 168.98 119.466C169.012 119.486 169.043 119.522 169.075 119.573L169.566 120.355C169.341 120.533 169.087 120.667 168.802 120.758C168.518 120.849 168.224 120.894 167.919 120.894ZM174.105 117.026C174.105 116.856 174.081 116.694 174.034 116.54C173.991 116.386 173.92 116.249 173.821 116.131C173.722 116.012 173.598 115.92 173.448 115.852C173.297 115.781 173.118 115.746 172.908 115.746C172.517 115.746 172.211 115.856 171.99 116.078C171.769 116.299 171.625 116.615 171.558 117.026H174.105ZM171.534 117.997C171.585 118.57 171.747 118.989 172.02 119.253C172.296 119.518 172.656 119.65 173.098 119.65C173.323 119.65 173.517 119.624 173.679 119.573C173.844 119.518 173.989 119.459 174.111 119.395C174.237 119.328 174.35 119.269 174.449 119.218C174.551 119.162 174.652 119.135 174.751 119.135C174.877 119.135 174.976 119.182 175.047 119.277L175.521 119.869C175.347 120.071 175.156 120.239 174.946 120.373C174.737 120.503 174.52 120.608 174.295 120.687C174.07 120.762 173.843 120.813 173.613 120.841C173.384 120.873 173.163 120.888 172.95 120.888C172.523 120.888 172.124 120.819 171.753 120.681C171.386 120.539 171.064 120.331 170.787 120.059C170.515 119.782 170.3 119.441 170.142 119.034C169.984 118.627 169.905 118.155 169.905 117.618C169.905 117.203 169.972 116.812 170.106 116.445C170.244 116.078 170.442 115.758 170.699 115.485C170.955 115.213 171.267 114.997 171.635 114.839C172.002 114.677 172.417 114.596 172.879 114.596C173.27 114.596 173.629 114.66 173.957 114.786C174.289 114.909 174.573 115.088 174.81 115.325C175.051 115.562 175.237 115.854 175.367 116.202C175.501 116.546 175.569 116.939 175.569 117.381C175.569 117.503 175.563 117.604 175.551 117.683C175.539 117.762 175.519 117.825 175.491 117.873C175.464 117.92 175.426 117.954 175.379 117.973C175.332 117.989 175.27 117.997 175.195 117.997H171.534ZM182.588 118.246C182.189 118.266 181.858 118.301 181.593 118.353C181.328 118.4 181.117 118.463 180.959 118.542C180.805 118.621 180.694 118.712 180.627 118.815C180.564 118.913 180.533 119.022 180.533 119.141C180.533 119.378 180.598 119.545 180.728 119.644C180.862 119.743 181.048 119.792 181.285 119.792C181.557 119.792 181.792 119.745 181.99 119.65C182.191 119.551 182.391 119.399 182.588 119.194V118.246ZM179.259 115.538C179.618 115.215 180.015 114.974 180.45 114.816C180.884 114.654 181.354 114.573 181.86 114.573C182.223 114.573 182.547 114.632 182.831 114.751C183.12 114.869 183.362 115.035 183.56 115.248C183.761 115.458 183.915 115.708 184.022 116.001C184.129 116.293 184.182 116.613 184.182 116.96V120.799H183.436C183.281 120.799 183.163 120.778 183.08 120.734C183.001 120.691 182.936 120.6 182.885 120.462L182.754 120.071C182.6 120.205 182.45 120.324 182.304 120.426C182.162 120.529 182.014 120.616 181.86 120.687C181.706 120.754 181.54 120.805 181.362 120.841C181.188 120.876 180.993 120.894 180.775 120.894C180.507 120.894 180.262 120.859 180.041 120.788C179.82 120.716 179.628 120.612 179.466 120.474C179.308 120.331 179.186 120.156 179.099 119.946C179.012 119.737 178.968 119.496 178.968 119.224C178.968 118.998 179.026 118.773 179.14 118.548C179.255 118.323 179.45 118.12 179.727 117.938C180.007 117.752 180.378 117.6 180.841 117.482C181.307 117.359 181.889 117.29 182.588 117.274V116.96C182.588 116.577 182.507 116.297 182.345 116.119C182.183 115.937 181.95 115.847 181.646 115.847C181.421 115.847 181.234 115.874 181.083 115.929C180.933 115.981 180.801 116.038 180.687 116.101C180.576 116.161 180.471 116.218 180.373 116.273C180.274 116.324 180.159 116.35 180.029 116.35C179.914 116.35 179.818 116.322 179.739 116.267C179.664 116.208 179.6 116.139 179.549 116.06L179.259 115.538ZM186.975 115.402C187.097 115.284 187.224 115.175 187.354 115.076C187.489 114.978 187.629 114.893 187.775 114.822C187.925 114.751 188.085 114.695 188.255 114.656C188.429 114.616 188.616 114.596 188.818 114.596C189.149 114.596 189.444 114.654 189.7 114.768C189.957 114.883 190.172 115.043 190.346 115.248C190.524 115.454 190.656 115.698 190.743 115.983C190.834 116.267 190.879 116.579 190.879 116.919V120.799H189.25V116.919C189.25 116.579 189.171 116.317 189.013 116.131C188.855 115.941 188.622 115.847 188.314 115.847C188.085 115.847 187.87 115.896 187.668 115.995C187.467 116.093 187.275 116.232 187.094 116.409V120.799H185.458V114.691H186.466C186.671 114.691 186.807 114.786 186.874 114.976L186.975 115.402ZM199.351 117.535L198.421 114.905C198.366 114.766 198.307 114.604 198.244 114.419C198.184 114.233 198.127 114.032 198.072 113.814C198.016 114.036 197.957 114.241 197.894 114.431C197.835 114.616 197.777 114.778 197.722 114.916L196.798 117.535H199.351ZM202.337 120.799H200.957C200.803 120.799 200.677 120.764 200.578 120.693C200.483 120.618 200.412 120.523 200.365 120.408L199.784 118.767H196.36L195.779 120.408C195.739 120.507 195.67 120.598 195.572 120.681C195.473 120.76 195.348 120.799 195.198 120.799H193.806L197.165 112.203H198.984L202.337 120.799ZM204.531 119.188C204.686 119.366 204.851 119.49 205.029 119.561C205.211 119.632 205.404 119.668 205.61 119.668C205.807 119.668 205.987 119.63 206.149 119.555C206.311 119.48 206.449 119.364 206.564 119.206C206.682 119.044 206.773 118.838 206.836 118.59C206.899 118.341 206.931 118.045 206.931 117.701C206.931 117.361 206.903 117.073 206.848 116.836C206.797 116.599 206.722 116.407 206.623 116.261C206.528 116.115 206.412 116.01 206.273 115.947C206.135 115.88 205.981 115.847 205.811 115.847C205.523 115.847 205.28 115.904 205.082 116.018C204.889 116.129 204.705 116.293 204.531 116.51V119.188ZM204.437 115.491C204.559 115.357 204.689 115.234 204.828 115.124C204.966 115.009 205.114 114.912 205.272 114.833C205.43 114.751 205.6 114.687 205.782 114.644C205.963 114.596 206.161 114.573 206.374 114.573C206.702 114.573 207.002 114.644 207.275 114.786C207.551 114.924 207.788 115.128 207.985 115.396C208.183 115.661 208.337 115.987 208.448 116.374C208.558 116.761 208.613 117.203 208.613 117.701C208.613 118.159 208.55 118.584 208.424 118.975C208.301 119.362 208.126 119.697 207.897 119.982C207.668 120.266 207.391 120.489 207.067 120.651C206.747 120.809 206.39 120.888 205.995 120.888C205.663 120.888 205.381 120.839 205.148 120.74C204.919 120.641 204.713 120.507 204.531 120.337V122.772H202.896V114.691H203.903C204.109 114.691 204.245 114.786 204.312 114.976L204.437 115.491ZM211.301 119.188C211.455 119.366 211.621 119.49 211.798 119.561C211.98 119.632 212.174 119.668 212.379 119.668C212.576 119.668 212.756 119.63 212.918 119.555C213.08 119.48 213.218 119.364 213.333 119.206C213.451 119.044 213.542 118.838 213.605 118.59C213.669 118.341 213.7 118.045 213.7 117.701C213.7 117.361 213.672 117.073 213.617 116.836C213.566 116.599 213.491 116.407 213.392 116.261C213.297 116.115 213.181 116.01 213.043 115.947C212.904 115.88 212.75 115.847 212.58 115.847C212.292 115.847 212.049 115.904 211.852 116.018C211.658 116.129 211.474 116.293 211.301 116.51V119.188ZM211.206 115.491C211.328 115.357 211.459 115.234 211.597 115.124C211.735 115.009 211.883 114.912 212.041 114.833C212.199 114.751 212.369 114.687 212.551 114.644C212.732 114.596 212.93 114.573 213.143 114.573C213.471 114.573 213.771 114.644 214.044 114.786C214.32 114.924 214.557 115.128 214.755 115.396C214.952 115.661 215.106 115.987 215.217 116.374C215.327 116.761 215.383 117.203 215.383 117.701C215.383 118.159 215.32 118.584 215.193 118.975C215.071 119.362 214.895 119.697 214.666 119.982C214.437 120.266 214.16 120.489 213.836 120.651C213.516 120.809 213.159 120.888 212.764 120.888C212.432 120.888 212.15 120.839 211.917 120.74C211.688 120.641 211.482 120.507 211.301 120.337V122.772H209.666V114.691H210.673C210.878 114.691 211.014 114.786 211.082 114.976L211.206 115.491Z"
            fill="white" />
        <rect x="120.869" y="101.875" width="114.707" height="29.849" rx="2.76477" stroke="#007A5A" stroke-opacity="0.3"
            stroke-width="0.789934" stroke-miterlimit="0" stroke-linejoin="bevel" />
        <g filter="url(#filter1_d_52_438)">
            <path
                d="M253.885 137.276C254.023 137.609 253.89 138.868 253.155 139.16C252.421 139.452 251.482 139.16 251.482 139.16L249.779 135.754L246.836 138.697V125.404L255.852 134.421H252.493C252.658 134.737 253.709 136.854 253.885 137.276Z"
                fill="white" />
            <path fill-rule="evenodd" clip-rule="evenodd"
                d="M247.626 127.311V136.79L249.996 134.421L251.97 138.37C251.97 138.37 252.505 138.541 252.76 138.37C253.016 138.2 253.27 137.856 253.155 137.58C252.612 136.277 251.181 133.631 251.181 133.631H253.945L247.626 127.311Z"
                fill="#202125" />
        </g>
    </g>
    <defs>
        <filter id="filter0_d_52_438" x="0.85559" y="0.283638" width="354.733" height="169.752"
            filterUnits="userSpaceOnUse" color-interpolation-filters="sRGB">
            <feFlood flood-opacity="0" result="BackgroundImageFix" />
            <feColorMatrix in="SourceAlpha" type="matrix" values="0 0 0 0 0 0 0 0 0 0 0 0 0 0 0 0 0 0 127 0"
                result="hardAlpha" />
            <feMorphology radius="0.789934" operator="dilate" in="SourceAlpha" result="effect1_dropShadow_52_438" />
            <feOffset dy="3.15974" />
            <feGaussianBlur stdDeviation="7.89934" />
            <feColorMatrix type="matrix" values="0 0 0 0 0 0 0 0 0 0 0 0 0 0 0 0 0 0 0.05 0" />
            <feBlend mode="normal" in2="BackgroundImageFix" result="effect1_dropShadow_52_438" />
            <feBlend mode="normal" in="SourceGraphic" in2="effect1_dropShadow_52_438" result="shape" />
        </filter>
        <filter id="filter1_d_52_438" x="245.414" y="124.772" width="11.8602" height="16.7296"
            filterUnits="userSpaceOnUse" color-interpolation-filters="sRGB">
            <feFlood flood-opacity="0" result="BackgroundImageFix" />
            <feColorMatrix in="SourceAlpha" type="matrix" values="0 0 0 0 0 0 0 0 0 0 0 0 0 0 0 0 0 0 127 0"
                result="hardAlpha" />
            <feOffset dy="0.789934" />
            <feGaussianBlur stdDeviation="0.710941" />
            <feColorMatrix type="matrix" values="0 0 0 0 0 0 0 0 0 0 0 0 0 0 0 0 0 0 0.65 0" />
            <feBlend mode="normal" in2="BackgroundImageFix" result="effect1_dropShadow_52_438" />
            <feBlend mode="normal" in="SourceGraphic" in2="effect1_dropShadow_52_438" result="shape" />
        </filter>
    </defs>
</svg>