<svg width="499" height="171" viewBox="0 0 499 171" fill="none" xmlns="http://www.w3.org/2000/svg">
    <g filter="url(#filter0_d_52_512)">
        <rect x="21" y="17" width="457" height="125" rx="16" fill="#FFFBFF" />
        <path
            d="M53.405 49H51.14V38.1175H53.405V49ZM57.1988 42.1675C57.3538 42.0175 57.5138 41.88 57.6788 41.755C57.8488 41.63 58.0263 41.5225 58.2113 41.4325C58.4013 41.3425 58.6038 41.2725 58.8188 41.2225C59.0388 41.1725 59.2763 41.1475 59.5313 41.1475C59.9513 41.1475 60.3238 41.22 60.6488 41.365C60.9738 41.51 61.2463 41.7125 61.4663 41.9725C61.6913 42.2325 61.8588 42.5425 61.9688 42.9025C62.0838 43.2625 62.1413 43.6575 62.1413 44.0875V49H60.0788V44.0875C60.0788 43.6575 59.9788 43.325 59.7788 43.09C59.5788 42.85 59.2838 42.73 58.8938 42.73C58.6038 42.73 58.3313 42.7925 58.0763 42.9175C57.8213 43.0425 57.5788 43.2175 57.3488 43.4425V49H55.2788V41.2675H56.5538C56.8138 41.2675 56.9863 41.3875 57.0713 41.6275L57.1988 42.1675ZM68.5971 42.8575C68.5421 42.9425 68.4846 43.005 68.4246 43.045C68.3696 43.08 68.2921 43.0975 68.1921 43.0975C68.0921 43.0975 67.9896 43.0725 67.8846 43.0225C67.7796 42.9725 67.6621 42.92 67.5321 42.865C67.4021 42.805 67.2521 42.75 67.0821 42.7C66.9171 42.65 66.7246 42.625 66.5046 42.625C66.1696 42.625 65.9096 42.695 65.7246 42.835C65.5396 42.97 65.4471 43.15 65.4471 43.375C65.4471 43.53 65.4996 43.66 65.6046 43.765C65.7096 43.87 65.8471 43.9625 66.0171 44.0425C66.1921 44.1175 66.3896 44.19 66.6096 44.26C66.8296 44.325 67.0546 44.3975 67.2846 44.4775C67.5196 44.5575 67.7471 44.65 67.9671 44.755C68.1871 44.86 68.3821 44.9925 68.5521 45.1525C68.7271 45.3075 68.8671 45.4975 68.9721 45.7225C69.0771 45.9425 69.1296 46.21 69.1296 46.525C69.1296 46.9 69.0596 47.2475 68.9196 47.5675C68.7846 47.8825 68.5846 48.155 68.3196 48.385C68.0546 48.615 67.7246 48.795 67.3296 48.925C66.9346 49.055 66.4796 49.12 65.9646 49.12C65.6996 49.12 65.4371 49.095 65.1771 49.045C64.9171 49 64.6696 48.935 64.4346 48.85C64.1996 48.76 63.9796 48.6575 63.7746 48.5425C63.5696 48.4275 63.3921 48.3025 63.2421 48.1675L63.7221 47.395C63.7771 47.305 63.8446 47.235 63.9246 47.185C64.0096 47.135 64.1171 47.11 64.2471 47.11C64.3721 47.11 64.4871 47.1425 64.5921 47.2075C64.6971 47.2675 64.8146 47.335 64.9446 47.41C65.0746 47.48 65.2271 47.5475 65.4021 47.6125C65.5821 47.6725 65.8046 47.7025 66.0696 47.7025C66.2696 47.7025 66.4421 47.68 66.5871 47.635C66.7321 47.59 66.8496 47.53 66.9396 47.455C67.0296 47.375 67.0946 47.2875 67.1346 47.1925C67.1796 47.0925 67.2021 46.99 67.2021 46.885C67.2021 46.715 67.1471 46.5775 67.0371 46.4725C66.9321 46.3625 66.7921 46.2675 66.6171 46.1875C66.4471 46.1075 66.2496 46.035 66.0246 45.97C65.7996 45.905 65.5696 45.8325 65.3346 45.7525C65.1046 45.6725 64.8771 45.5775 64.6521 45.4675C64.4321 45.3575 64.2346 45.22 64.0596 45.055C63.8896 44.885 63.7496 44.6775 63.6396 44.4325C63.5346 44.1875 63.4821 43.89 63.4821 43.54C63.4821 43.22 63.5446 42.9175 63.6696 42.6325C63.7946 42.3425 63.9821 42.0875 64.2321 41.8675C64.4821 41.6475 64.7921 41.4725 65.1621 41.3425C65.5371 41.2125 65.9696 41.1475 66.4596 41.1475C67.0096 41.1475 67.5096 41.2375 67.9596 41.4175C68.4096 41.5975 68.7796 41.8325 69.0696 42.1225L68.5971 42.8575ZM73.0953 49.12C72.7453 49.12 72.4353 49.07 72.1653 48.97C71.8953 48.865 71.6678 48.7175 71.4828 48.5275C71.2978 48.3375 71.1578 48.1075 71.0628 47.8375C70.9678 47.5675 70.9203 47.2625 70.9203 46.9225V42.7525H70.1928C70.0828 42.7525 69.9878 42.7175 69.9078 42.6475C69.8328 42.5775 69.7953 42.4725 69.7953 42.3325V41.5225L71.0328 41.2975L71.4528 39.295C71.5078 39.07 71.6603 38.9575 71.9103 38.9575H72.9903V41.3125H74.9853V42.7525H72.9903V46.7875C72.9903 47.0025 73.0403 47.1725 73.1403 47.2975C73.2453 47.4225 73.3928 47.485 73.5828 47.485C73.6828 47.485 73.7678 47.475 73.8378 47.455C73.9078 47.43 73.9678 47.405 74.0178 47.38C74.0678 47.35 74.1128 47.325 74.1528 47.305C74.1978 47.28 74.2428 47.2675 74.2878 47.2675C74.3478 47.2675 74.3978 47.2825 74.4378 47.3125C74.4778 47.3375 74.5178 47.3825 74.5578 47.4475L75.1803 48.4375C74.8953 48.6625 74.5728 48.8325 74.2128 48.9475C73.8528 49.0625 73.4803 49.12 73.0953 49.12ZM80.1368 45.7675C79.6318 45.7925 79.2118 45.8375 78.8768 45.9025C78.5418 45.9625 78.2743 46.0425 78.0743 46.1425C77.8793 46.2425 77.7393 46.3575 77.6543 46.4875C77.5743 46.6125 77.5343 46.75 77.5343 46.9C77.5343 47.2 77.6168 47.4125 77.7818 47.5375C77.9518 47.6625 78.1868 47.725 78.4868 47.725C78.8318 47.725 79.1293 47.665 79.3793 47.545C79.6343 47.42 79.8868 47.2275 80.1368 46.9675V45.7675ZM75.9218 42.34C76.3768 41.93 76.8793 41.625 77.4293 41.425C77.9793 41.22 78.5743 41.1175 79.2143 41.1175C79.6743 41.1175 80.0843 41.1925 80.4443 41.3425C80.8093 41.4925 81.1168 41.7025 81.3668 41.9725C81.6218 42.2375 81.8168 42.555 81.9518 42.925C82.0868 43.295 82.1543 43.7 82.1543 44.14V49H81.2093C81.0143 49 80.8643 48.9725 80.7593 48.9175C80.6593 48.8625 80.5768 48.7475 80.5118 48.5725L80.3468 48.0775C80.1518 48.2475 79.9618 48.3975 79.7768 48.5275C79.5968 48.6575 79.4093 48.7675 79.2143 48.8575C79.0193 48.9425 78.8093 49.0075 78.5843 49.0525C78.3643 49.0975 78.1168 49.12 77.8418 49.12C77.5018 49.12 77.1918 49.075 76.9118 48.985C76.6318 48.895 76.3893 48.7625 76.1843 48.5875C75.9843 48.4075 75.8293 48.185 75.7193 47.92C75.6093 47.655 75.5543 47.35 75.5543 47.005C75.5543 46.72 75.6268 46.435 75.7718 46.15C75.9168 45.865 76.1643 45.6075 76.5143 45.3775C76.8693 45.1425 77.3393 44.95 77.9243 44.8C78.5143 44.645 79.2518 44.5575 80.1368 44.5375V44.14C80.1368 43.655 80.0343 43.3 79.8293 43.075C79.6243 42.845 79.3293 42.73 78.9443 42.73C78.6593 42.73 78.4218 42.765 78.2318 42.835C78.0418 42.9 77.8743 42.9725 77.7293 43.0525C77.5893 43.1275 77.4568 43.2 77.3318 43.27C77.2068 43.335 77.0618 43.3675 76.8968 43.3675C76.7518 43.3675 76.6293 43.3325 76.5293 43.2625C76.4343 43.1875 76.3543 43.1 76.2893 43L75.9218 42.34ZM85.855 37.8175V49H83.785V37.8175H85.855ZM89.6636 37.8175V49H87.5936V37.8175H89.6636ZM101.736 41.2675L97.5659 51.0775C97.5009 51.2175 97.4209 51.3225 97.3259 51.3925C97.2359 51.4625 97.0909 51.4975 96.8909 51.4975H95.3534L96.8159 48.3775L93.7109 41.2675H95.5259C95.6909 41.2675 95.8184 41.305 95.9084 41.38C95.9984 41.455 96.0634 41.5425 96.1034 41.6425L97.5734 45.34C97.6284 45.485 97.6759 45.6325 97.7159 45.7825C97.7609 45.9275 97.8034 46.0725 97.8434 46.2175C97.9334 45.9225 98.0359 45.6275 98.1509 45.3325L99.5159 41.6425C99.5559 41.5325 99.6284 41.4425 99.7334 41.3725C99.8384 41.3025 99.9534 41.2675 100.078 41.2675H101.736ZM105.788 41.1475C106.368 41.1475 106.895 41.24 107.37 41.425C107.845 41.61 108.253 41.875 108.593 42.22C108.933 42.56 109.195 42.975 109.38 43.465C109.565 43.955 109.658 44.5075 109.658 45.1225C109.658 45.7375 109.565 46.2925 109.38 46.7875C109.195 47.2775 108.933 47.695 108.593 48.04C108.253 48.385 107.845 48.65 107.37 48.835C106.895 49.02 106.368 49.1125 105.788 49.1125C105.203 49.1125 104.67 49.02 104.19 48.835C103.715 48.65 103.308 48.385 102.968 48.04C102.628 47.695 102.363 47.2775 102.173 46.7875C101.988 46.2925 101.895 45.7375 101.895 45.1225C101.895 44.5075 101.988 43.955 102.173 43.465C102.363 42.975 102.628 42.56 102.968 42.22C103.308 41.875 103.715 41.61 104.19 41.425C104.67 41.24 105.203 41.1475 105.788 41.1475ZM105.788 47.56C106.378 47.56 106.815 47.3575 107.1 46.9525C107.385 46.5425 107.528 45.935 107.528 45.13C107.528 44.33 107.385 43.7275 107.1 43.3225C106.815 42.9125 106.378 42.7075 105.788 42.7075C105.183 42.7075 104.738 42.9125 104.453 43.3225C104.168 43.7275 104.025 44.33 104.025 45.13C104.025 45.935 104.168 46.5425 104.453 46.9525C104.738 47.3575 105.183 47.56 105.788 47.56ZM117.745 41.2675V49H116.47C116.205 49 116.035 48.88 115.96 48.64L115.825 48.1C115.67 48.25 115.51 48.3875 115.345 48.5125C115.18 48.6375 115.003 48.745 114.813 48.835C114.628 48.925 114.425 48.995 114.205 49.045C113.99 49.095 113.755 49.12 113.5 49.12C113.08 49.12 112.705 49.0475 112.375 48.9025C112.05 48.7575 111.778 48.555 111.558 48.295C111.338 48.035 111.17 47.725 111.055 47.365C110.94 47.005 110.883 46.61 110.883 46.18V41.2675H112.953V46.18C112.953 46.61 113.05 46.945 113.245 47.185C113.445 47.42 113.74 47.5375 114.13 47.5375C114.42 47.5375 114.693 47.475 114.948 47.35C115.203 47.22 115.445 47.045 115.675 46.825V41.2675H117.745ZM121.396 42.5425C121.641 42.1025 121.924 41.755 122.244 41.5C122.564 41.245 122.939 41.1175 123.369 41.1175C123.719 41.1175 124.004 41.2 124.224 41.365L124.089 42.895C124.064 42.995 124.024 43.065 123.969 43.105C123.919 43.14 123.849 43.1575 123.759 43.1575C123.679 43.1575 123.564 43.1475 123.414 43.1275C123.264 43.1025 123.124 43.09 122.994 43.09C122.804 43.09 122.634 43.1175 122.484 43.1725C122.339 43.2275 122.209 43.305 122.094 43.405C121.979 43.505 121.874 43.6275 121.779 43.7725C121.689 43.9175 121.604 44.0825 121.524 44.2675V49H119.454V41.2675H120.676C120.886 41.2675 121.031 41.305 121.111 41.38C121.191 41.455 121.249 41.585 121.284 41.77L121.396 42.5425ZM132.402 45.7675C131.897 45.7925 131.477 45.8375 131.142 45.9025C130.807 45.9625 130.54 46.0425 130.34 46.1425C130.145 46.2425 130.005 46.3575 129.92 46.4875C129.84 46.6125 129.8 46.75 129.8 46.9C129.8 47.2 129.882 47.4125 130.047 47.5375C130.217 47.6625 130.452 47.725 130.752 47.725C131.097 47.725 131.395 47.665 131.645 47.545C131.9 47.42 132.152 47.2275 132.402 46.9675V45.7675ZM128.187 42.34C128.642 41.93 129.145 41.625 129.695 41.425C130.245 41.22 130.84 41.1175 131.48 41.1175C131.94 41.1175 132.35 41.1925 132.71 41.3425C133.075 41.4925 133.382 41.7025 133.632 41.9725C133.887 42.2375 134.082 42.555 134.217 42.925C134.352 43.295 134.42 43.7 134.42 44.14V49H133.475C133.28 49 133.13 48.9725 133.025 48.9175C132.925 48.8625 132.842 48.7475 132.777 48.5725L132.612 48.0775C132.417 48.2475 132.227 48.3975 132.042 48.5275C131.862 48.6575 131.675 48.7675 131.48 48.8575C131.285 48.9425 131.075 49.0075 130.85 49.0525C130.63 49.0975 130.382 49.12 130.107 49.12C129.767 49.12 129.457 49.075 129.177 48.985C128.897 48.895 128.655 48.7625 128.45 48.5875C128.25 48.4075 128.095 48.185 127.985 47.92C127.875 47.655 127.82 47.35 127.82 47.005C127.82 46.72 127.892 46.435 128.037 46.15C128.182 45.865 128.43 45.6075 128.78 45.3775C129.135 45.1425 129.605 44.95 130.19 44.8C130.78 44.645 131.517 44.5575 132.402 44.5375V44.14C132.402 43.655 132.3 43.3 132.095 43.075C131.89 42.845 131.595 42.73 131.21 42.73C130.925 42.73 130.687 42.765 130.497 42.835C130.307 42.9 130.14 42.9725 129.995 43.0525C129.855 43.1275 129.722 43.2 129.597 43.27C129.472 43.335 129.327 43.3675 129.162 43.3675C129.017 43.3675 128.895 43.3325 128.795 43.2625C128.7 43.1875 128.62 43.1 128.555 43L128.187 42.34ZM138.106 46.96C138.301 47.185 138.511 47.3425 138.736 47.4325C138.966 47.5225 139.211 47.5675 139.471 47.5675C139.721 47.5675 139.948 47.52 140.153 47.425C140.358 47.33 140.533 47.1825 140.678 46.9825C140.828 46.7775 140.943 46.5175 141.023 46.2025C141.103 45.8875 141.143 45.5125 141.143 45.0775C141.143 44.6475 141.108 44.2825 141.038 43.9825C140.973 43.6825 140.878 43.44 140.753 43.255C140.633 43.07 140.486 42.9375 140.311 42.8575C140.136 42.7725 139.941 42.73 139.726 42.73C139.361 42.73 139.053 42.8025 138.803 42.9475C138.558 43.0875 138.326 43.295 138.106 43.57V46.96ZM137.986 42.28C138.141 42.11 138.306 41.955 138.481 41.815C138.656 41.67 138.843 41.5475 139.043 41.4475C139.243 41.3425 139.458 41.2625 139.688 41.2075C139.918 41.1475 140.168 41.1175 140.438 41.1175C140.853 41.1175 141.233 41.2075 141.578 41.3875C141.928 41.5625 142.228 41.82 142.478 42.16C142.728 42.495 142.923 42.9075 143.063 43.3975C143.203 43.8875 143.273 44.4475 143.273 45.0775C143.273 45.6575 143.193 46.195 143.033 46.69C142.878 47.18 142.656 47.605 142.366 47.965C142.076 48.325 141.726 48.6075 141.316 48.8125C140.911 49.0125 140.458 49.1125 139.958 49.1125C139.538 49.1125 139.181 49.05 138.886 48.925C138.596 48.8 138.336 48.63 138.106 48.415V51.4975H136.036V41.2675H137.311C137.571 41.2675 137.743 41.3875 137.828 41.6275L137.986 42.28ZM146.675 46.96C146.87 47.185 147.08 47.3425 147.305 47.4325C147.535 47.5225 147.78 47.5675 148.04 47.5675C148.29 47.5675 148.518 47.52 148.723 47.425C148.928 47.33 149.103 47.1825 149.248 46.9825C149.398 46.7775 149.513 46.5175 149.593 46.2025C149.673 45.8875 149.713 45.5125 149.713 45.0775C149.713 44.6475 149.678 44.2825 149.608 43.9825C149.543 43.6825 149.448 43.44 149.323 43.255C149.203 43.07 149.055 42.9375 148.88 42.8575C148.705 42.7725 148.51 42.73 148.295 42.73C147.93 42.73 147.623 42.8025 147.373 42.9475C147.128 43.0875 146.895 43.295 146.675 43.57V46.96ZM146.555 42.28C146.71 42.11 146.875 41.955 147.05 41.815C147.225 41.67 147.413 41.5475 147.613 41.4475C147.813 41.3425 148.028 41.2625 148.258 41.2075C148.488 41.1475 148.738 41.1175 149.008 41.1175C149.423 41.1175 149.803 41.2075 150.148 41.3875C150.498 41.5625 150.798 41.82 151.048 42.16C151.298 42.495 151.493 42.9075 151.632 43.3975C151.772 43.8875 151.842 44.4475 151.842 45.0775C151.842 45.6575 151.763 46.195 151.603 46.69C151.448 47.18 151.225 47.605 150.935 47.965C150.645 48.325 150.295 48.6075 149.885 48.8125C149.48 49.0125 149.028 49.1125 148.528 49.1125C148.108 49.1125 147.75 49.05 147.455 48.925C147.165 48.8 146.905 48.63 146.675 48.415V51.4975H144.605V41.2675H145.88C146.14 41.2675 146.313 41.3875 146.398 41.6275L146.555 42.28Z"
            fill="#1D1C1D" />
        <path
            d="M432.77 42.2433C433.257 41.7066 432.926 41 432.2 41H425.8C425.074 41 424.743 41.7066 425.23 42.2433L428.421 45.7317C428.743 46.0894 429.257 46.0894 429.579 45.7317L432.77 42.2433Z"
            fill="#1D1C1D" />
        <rect x="50" y="65" width="324" height="5" rx="2.5" fill="#E6E2D9" />
        <rect x="50" y="78" width="334" height="5" rx="2.5" fill="#E6E2D9" />
        <rect x="50" y="91" width="26" height="5" rx="2.5" fill="#E6E2D9" />
        <path
            d="M60.155 119H58.805V111.77H60.155V119ZM62.6556 114.5C62.759 114.397 62.8673 114.302 62.9806 114.215C63.0973 114.125 63.219 114.05 63.3456 113.99C63.4756 113.927 63.614 113.878 63.7606 113.845C63.9073 113.808 64.0673 113.79 64.2406 113.79C64.5206 113.79 64.769 113.838 64.9856 113.935C65.2023 114.028 65.3823 114.162 65.5256 114.335C65.6723 114.505 65.7823 114.71 65.8556 114.95C65.9323 115.187 65.9706 115.448 65.9706 115.735V119H64.7356V115.735C64.7356 115.422 64.664 115.18 64.5206 115.01C64.3773 114.837 64.159 114.75 63.8656 114.75C63.6523 114.75 63.4523 114.798 63.2656 114.895C63.079 114.992 62.9023 115.123 62.7356 115.29V119H61.5006V113.87H62.2556C62.4156 113.87 62.5206 113.945 62.5706 114.095L62.6556 114.5ZM70.2752 114.87C70.2418 114.923 70.2068 114.962 70.1702 114.985C70.1335 115.005 70.0868 115.015 70.0302 115.015C69.9702 115.015 69.9052 114.998 69.8352 114.965C69.7685 114.932 69.6902 114.895 69.6002 114.855C69.5102 114.812 69.4068 114.773 69.2902 114.74C69.1768 114.707 69.0418 114.69 68.8852 114.69C68.6418 114.69 68.4502 114.742 68.3102 114.845C68.1735 114.948 68.1052 115.083 68.1052 115.25C68.1052 115.36 68.1402 115.453 68.2102 115.53C68.2835 115.603 68.3785 115.668 68.4952 115.725C68.6152 115.782 68.7502 115.833 68.9002 115.88C69.0502 115.923 69.2018 115.972 69.3552 116.025C69.5118 116.078 69.6652 116.14 69.8152 116.21C69.9652 116.277 70.0985 116.363 70.2152 116.47C70.3352 116.573 70.4302 116.698 70.5002 116.845C70.5735 116.992 70.6102 117.168 70.6102 117.375C70.6102 117.622 70.5652 117.85 70.4752 118.06C70.3885 118.267 70.2585 118.447 70.0852 118.6C69.9118 118.75 69.6968 118.868 69.4402 118.955C69.1868 119.038 68.8935 119.08 68.5602 119.08C68.3835 119.08 68.2102 119.063 68.0402 119.03C67.8735 119 67.7118 118.957 67.5552 118.9C67.4018 118.843 67.2585 118.777 67.1252 118.7C66.9952 118.623 66.8802 118.54 66.7802 118.45L67.0652 117.98C67.1018 117.923 67.1452 117.88 67.1952 117.85C67.2452 117.82 67.3085 117.805 67.3852 117.805C67.4618 117.805 67.5335 117.827 67.6002 117.87C67.6702 117.913 67.7502 117.96 67.8402 118.01C67.9302 118.06 68.0352 118.107 68.1552 118.15C68.2785 118.193 68.4335 118.215 68.6202 118.215C68.7668 118.215 68.8918 118.198 68.9952 118.165C69.1018 118.128 69.1885 118.082 69.2552 118.025C69.3252 117.968 69.3752 117.903 69.4052 117.83C69.4385 117.753 69.4552 117.675 69.4552 117.595C69.4552 117.475 69.4185 117.377 69.3452 117.3C69.2752 117.223 69.1802 117.157 69.0602 117.1C68.9435 117.043 68.8085 116.993 68.6552 116.95C68.5052 116.903 68.3502 116.853 68.1902 116.8C68.0335 116.747 67.8785 116.685 67.7252 116.615C67.5752 116.542 67.4402 116.45 67.3202 116.34C67.2035 116.23 67.1085 116.095 67.0352 115.935C66.9652 115.775 66.9302 115.582 66.9302 115.355C66.9302 115.145 66.9718 114.945 67.0552 114.755C67.1385 114.565 67.2602 114.4 67.4202 114.26C67.5835 114.117 67.7852 114.003 68.0252 113.92C68.2685 113.833 68.5485 113.79 68.8652 113.79C69.2185 113.79 69.5402 113.848 69.8302 113.965C70.1202 114.082 70.3618 114.235 70.5552 114.425L70.2752 114.87ZM73.2497 119.08C72.803 119.08 72.4597 118.955 72.2197 118.705C71.983 118.452 71.8647 118.103 71.8647 117.66V114.795H71.3397C71.273 114.795 71.2164 114.773 71.1697 114.73C71.123 114.687 71.0997 114.622 71.0997 114.535V114.045L71.9247 113.91L72.1847 112.51C72.2014 112.443 72.233 112.392 72.2797 112.355C72.3264 112.318 72.3864 112.3 72.4597 112.3H73.0997V113.915H74.4697V114.795H73.0997V117.575C73.0997 117.735 73.138 117.86 73.2147 117.95C73.2947 118.04 73.403 118.085 73.5397 118.085C73.6164 118.085 73.6797 118.077 73.7297 118.06C73.783 118.04 73.828 118.02 73.8647 118C73.9047 117.98 73.9397 117.962 73.9697 117.945C73.9997 117.925 74.0297 117.915 74.0597 117.915C74.0964 117.915 74.1264 117.925 74.1497 117.945C74.173 117.962 74.198 117.988 74.2247 118.025L74.5947 118.625C74.4147 118.775 74.208 118.888 73.9747 118.965C73.7414 119.042 73.4997 119.08 73.2497 119.08ZM77.9704 116.81C77.6137 116.827 77.3137 116.858 77.0704 116.905C76.8271 116.948 76.6321 117.005 76.4854 117.075C76.3387 117.145 76.2337 117.227 76.1704 117.32C76.1071 117.413 76.0754 117.515 76.0754 117.625C76.0754 117.842 76.1387 117.997 76.2654 118.09C76.3954 118.183 76.5637 118.23 76.7704 118.23C77.0237 118.23 77.2421 118.185 77.4254 118.095C77.6121 118.002 77.7937 117.862 77.9704 117.675V116.81ZM75.1404 114.585C75.7304 114.045 76.4404 113.775 77.2704 113.775C77.5704 113.775 77.8387 113.825 78.0754 113.925C78.3121 114.022 78.5121 114.158 78.6754 114.335C78.8387 114.508 78.9621 114.717 79.0454 114.96C79.1321 115.203 79.1754 115.47 79.1754 115.76V119H78.6154C78.4987 119 78.4087 118.983 78.3454 118.95C78.2821 118.913 78.2321 118.842 78.1954 118.735L78.0854 118.365C77.9554 118.482 77.8287 118.585 77.7054 118.675C77.5821 118.762 77.4537 118.835 77.3204 118.895C77.1871 118.955 77.0437 119 76.8904 119.03C76.7404 119.063 76.5737 119.08 76.3904 119.08C76.1737 119.08 75.9737 119.052 75.7904 118.995C75.6071 118.935 75.4487 118.847 75.3154 118.73C75.1821 118.613 75.0787 118.468 75.0054 118.295C74.9321 118.122 74.8954 117.92 74.8954 117.69C74.8954 117.56 74.9171 117.432 74.9604 117.305C75.0037 117.175 75.0737 117.052 75.1704 116.935C75.2704 116.818 75.3987 116.708 75.5554 116.605C75.7121 116.502 75.9037 116.412 76.1304 116.335C76.3604 116.258 76.6271 116.197 76.9304 116.15C77.2337 116.1 77.5804 116.07 77.9704 116.06V115.76C77.9704 115.417 77.8971 115.163 77.7504 115C77.6037 114.833 77.3921 114.75 77.1154 114.75C76.9154 114.75 76.7487 114.773 76.6154 114.82C76.4854 114.867 76.3704 114.92 76.2704 114.98C76.1704 115.037 76.0787 115.088 75.9954 115.135C75.9154 115.182 75.8254 115.205 75.7254 115.205C75.6387 115.205 75.5654 115.183 75.5054 115.14C75.4454 115.093 75.3971 115.04 75.3604 114.98L75.1404 114.585ZM81.5885 111.57V119H80.3535V111.57H81.5885ZM84.069 111.57V119H82.834V111.57H84.069ZM89.4411 119.08C88.9944 119.08 88.6511 118.955 88.4111 118.705C88.1744 118.452 88.0561 118.103 88.0561 117.66V114.795H87.5311C87.4644 114.795 87.4078 114.773 87.3611 114.73C87.3144 114.687 87.2911 114.622 87.2911 114.535V114.045L88.1161 113.91L88.3761 112.51C88.3928 112.443 88.4244 112.392 88.4711 112.355C88.5178 112.318 88.5778 112.3 88.6511 112.3H89.2911V113.915H90.6611V114.795H89.2911V117.575C89.2911 117.735 89.3294 117.86 89.4061 117.95C89.4861 118.04 89.5944 118.085 89.7311 118.085C89.8078 118.085 89.8711 118.077 89.9211 118.06C89.9744 118.04 90.0194 118.02 90.0561 118C90.0961 117.98 90.1311 117.962 90.1611 117.945C90.1911 117.925 90.2211 117.915 90.2511 117.915C90.2878 117.915 90.3178 117.925 90.3411 117.945C90.3644 117.962 90.3894 117.988 90.4161 118.025L90.7861 118.625C90.6061 118.775 90.3994 118.888 90.1661 118.965C89.9328 119.042 89.6911 119.08 89.4411 119.08ZM93.6827 113.79C94.0627 113.79 94.4077 113.852 94.7177 113.975C95.0311 114.098 95.2977 114.273 95.5177 114.5C95.7411 114.727 95.9127 115.003 96.0327 115.33C96.1527 115.657 96.2127 116.022 96.2127 116.425C96.2127 116.832 96.1527 117.198 96.0327 117.525C95.9127 117.852 95.7411 118.13 95.5177 118.36C95.2977 118.59 95.0311 118.767 94.7177 118.89C94.4077 119.013 94.0627 119.075 93.6827 119.075C93.2994 119.075 92.9511 119.013 92.6377 118.89C92.3244 118.767 92.0561 118.59 91.8327 118.36C91.6127 118.13 91.4411 117.852 91.3177 117.525C91.1977 117.198 91.1377 116.832 91.1377 116.425C91.1377 116.022 91.1977 115.657 91.3177 115.33C91.4411 115.003 91.6127 114.727 91.8327 114.5C92.0561 114.273 92.3244 114.098 92.6377 113.975C92.9511 113.852 93.2994 113.79 93.6827 113.79ZM93.6827 118.125C94.1094 118.125 94.4244 117.982 94.6277 117.695C94.8344 117.408 94.9377 116.988 94.9377 116.435C94.9377 115.882 94.8344 115.46 94.6277 115.17C94.4244 114.88 94.1094 114.735 93.6827 114.735C93.2494 114.735 92.9277 114.882 92.7177 115.175C92.5111 115.465 92.4077 115.885 92.4077 116.435C92.4077 116.985 92.5111 117.405 92.7177 117.695C92.9277 117.982 93.2494 118.125 93.6827 118.125ZM109.333 111.77L107.088 119H105.873L104.293 114.06C104.25 113.94 104.21 113.793 104.173 113.62C104.153 113.703 104.133 113.782 104.113 113.855C104.093 113.928 104.072 113.997 104.048 114.06L102.453 119H101.233L98.9932 111.77H100.118C100.235 111.77 100.332 111.798 100.408 111.855C100.488 111.908 100.542 111.982 100.568 112.075L101.798 116.4C101.825 116.507 101.85 116.623 101.873 116.75C101.9 116.873 101.927 117.003 101.953 117.14C101.98 117 102.008 116.868 102.038 116.745C102.072 116.622 102.107 116.507 102.143 116.4L103.563 112.075C103.59 111.998 103.642 111.928 103.718 111.865C103.798 111.802 103.895 111.77 104.008 111.77H104.403C104.52 111.77 104.615 111.798 104.688 111.855C104.762 111.912 104.817 111.985 104.853 112.075L106.268 116.4C106.338 116.607 106.402 116.845 106.458 117.115C106.502 116.852 106.55 116.613 106.603 116.4L107.833 112.075C107.853 111.992 107.903 111.92 107.983 111.86C108.067 111.8 108.165 111.77 108.278 111.77H109.333ZM111.691 113.79C112.071 113.79 112.416 113.852 112.726 113.975C113.039 114.098 113.306 114.273 113.526 114.5C113.749 114.727 113.921 115.003 114.041 115.33C114.161 115.657 114.221 116.022 114.221 116.425C114.221 116.832 114.161 117.198 114.041 117.525C113.921 117.852 113.749 118.13 113.526 118.36C113.306 118.59 113.039 118.767 112.726 118.89C112.416 119.013 112.071 119.075 111.691 119.075C111.307 119.075 110.959 119.013 110.646 118.89C110.332 118.767 110.064 118.59 109.841 118.36C109.621 118.13 109.449 117.852 109.326 117.525C109.206 117.198 109.146 116.832 109.146 116.425C109.146 116.022 109.206 115.657 109.326 115.33C109.449 115.003 109.621 114.727 109.841 114.5C110.064 114.273 110.332 114.098 110.646 113.975C110.959 113.852 111.307 113.79 111.691 113.79ZM111.691 118.125C112.117 118.125 112.432 117.982 112.636 117.695C112.842 117.408 112.946 116.988 112.946 116.435C112.946 115.882 112.842 115.46 112.636 115.17C112.432 114.88 112.117 114.735 111.691 114.735C111.257 114.735 110.936 114.882 110.726 115.175C110.519 115.465 110.416 115.885 110.416 116.435C110.416 116.985 110.519 117.405 110.726 117.695C110.936 117.982 111.257 118.125 111.691 118.125ZM116.328 114.76C116.488 114.453 116.678 114.213 116.898 114.04C117.118 113.863 117.378 113.775 117.678 113.775C117.914 113.775 118.104 113.827 118.248 113.93L118.168 114.855C118.151 114.915 118.126 114.958 118.093 114.985C118.063 115.008 118.021 115.02 117.968 115.02C117.918 115.02 117.843 115.012 117.743 114.995C117.646 114.978 117.551 114.97 117.458 114.97C117.321 114.97 117.199 114.99 117.093 115.03C116.986 115.07 116.889 115.128 116.803 115.205C116.719 115.278 116.644 115.368 116.578 115.475C116.514 115.582 116.454 115.703 116.398 115.84V119H115.163V113.87H115.888C116.014 113.87 116.103 113.893 116.153 113.94C116.203 113.983 116.236 114.063 116.253 114.18L116.328 114.76ZM120.128 111.57V115.825H120.358C120.442 115.825 120.507 115.815 120.553 115.795C120.603 115.772 120.653 115.727 120.703 115.66L121.978 114.085C122.032 114.015 122.09 113.962 122.153 113.925C122.22 113.888 122.305 113.87 122.408 113.87H123.538L121.943 115.775C121.83 115.925 121.707 116.04 121.573 116.12C121.643 116.17 121.705 116.228 121.758 116.295C121.815 116.362 121.868 116.433 121.918 116.51L123.628 119H122.513C122.417 119 122.333 118.985 122.263 118.955C122.193 118.922 122.135 118.863 122.088 118.78L120.778 116.835C120.732 116.758 120.683 116.708 120.633 116.685C120.583 116.662 120.508 116.65 120.408 116.65H120.128V119H118.893V111.57H120.128ZM127.365 114.87C127.332 114.923 127.297 114.962 127.26 114.985C127.223 115.005 127.177 115.015 127.12 115.015C127.06 115.015 126.995 114.998 126.925 114.965C126.858 114.932 126.78 114.895 126.69 114.855C126.6 114.812 126.497 114.773 126.38 114.74C126.267 114.707 126.132 114.69 125.975 114.69C125.732 114.69 125.54 114.742 125.4 114.845C125.263 114.948 125.195 115.083 125.195 115.25C125.195 115.36 125.23 115.453 125.3 115.53C125.373 115.603 125.468 115.668 125.585 115.725C125.705 115.782 125.84 115.833 125.99 115.88C126.14 115.923 126.292 115.972 126.445 116.025C126.602 116.078 126.755 116.14 126.905 116.21C127.055 116.277 127.188 116.363 127.305 116.47C127.425 116.573 127.52 116.698 127.59 116.845C127.663 116.992 127.7 117.168 127.7 117.375C127.7 117.622 127.655 117.85 127.565 118.06C127.478 118.267 127.348 118.447 127.175 118.6C127.002 118.75 126.787 118.868 126.53 118.955C126.277 119.038 125.983 119.08 125.65 119.08C125.473 119.08 125.3 119.063 125.13 119.03C124.963 119 124.802 118.957 124.645 118.9C124.492 118.843 124.348 118.777 124.215 118.7C124.085 118.623 123.97 118.54 123.87 118.45L124.155 117.98C124.192 117.923 124.235 117.88 124.285 117.85C124.335 117.82 124.398 117.805 124.475 117.805C124.552 117.805 124.623 117.827 124.69 117.87C124.76 117.913 124.84 117.96 124.93 118.01C125.02 118.06 125.125 118.107 125.245 118.15C125.368 118.193 125.523 118.215 125.71 118.215C125.857 118.215 125.982 118.198 126.085 118.165C126.192 118.128 126.278 118.082 126.345 118.025C126.415 117.968 126.465 117.903 126.495 117.83C126.528 117.753 126.545 117.675 126.545 117.595C126.545 117.475 126.508 117.377 126.435 117.3C126.365 117.223 126.27 117.157 126.15 117.1C126.033 117.043 125.898 116.993 125.745 116.95C125.595 116.903 125.44 116.853 125.28 116.8C125.123 116.747 124.968 116.685 124.815 116.615C124.665 116.542 124.53 116.45 124.41 116.34C124.293 116.23 124.198 116.095 124.125 115.935C124.055 115.775 124.02 115.582 124.02 115.355C124.02 115.145 124.062 114.945 124.145 114.755C124.228 114.565 124.35 114.4 124.51 114.26C124.673 114.117 124.875 114.003 125.115 113.92C125.358 113.833 125.638 113.79 125.955 113.79C126.308 113.79 126.63 113.848 126.92 113.965C127.21 114.082 127.452 114.235 127.645 114.425L127.365 114.87ZM129.865 117.67C130.005 117.84 130.156 117.96 130.32 118.03C130.486 118.1 130.666 118.135 130.86 118.135C131.046 118.135 131.215 118.1 131.365 118.03C131.515 117.96 131.641 117.853 131.745 117.71C131.851 117.567 131.933 117.387 131.99 117.17C132.046 116.95 132.075 116.692 132.075 116.395C132.075 116.095 132.05 115.842 132 115.635C131.953 115.425 131.885 115.255 131.795 115.125C131.705 114.995 131.595 114.9 131.465 114.84C131.338 114.78 131.193 114.75 131.03 114.75C130.773 114.75 130.555 114.805 130.375 114.915C130.195 115.022 130.025 115.173 129.865 115.37V117.67ZM129.8 114.57C130.01 114.333 130.248 114.142 130.515 113.995C130.781 113.848 131.095 113.775 131.455 113.775C131.735 113.775 131.99 113.833 132.22 113.95C132.453 114.067 132.653 114.237 132.82 114.46C132.99 114.68 133.12 114.953 133.21 115.28C133.303 115.603 133.35 115.975 133.35 116.395C133.35 116.778 133.298 117.133 133.195 117.46C133.091 117.787 132.943 118.07 132.75 118.31C132.56 118.55 132.328 118.738 132.055 118.875C131.785 119.008 131.481 119.075 131.145 119.075C130.858 119.075 130.613 119.032 130.41 118.945C130.206 118.855 130.025 118.732 129.865 118.575V120.675H128.63V113.87H129.385C129.545 113.87 129.65 113.945 129.7 114.095L129.8 114.57ZM137.023 116.81C136.666 116.827 136.366 116.858 136.123 116.905C135.88 116.948 135.685 117.005 135.538 117.075C135.391 117.145 135.286 117.227 135.223 117.32C135.16 117.413 135.128 117.515 135.128 117.625C135.128 117.842 135.191 117.997 135.318 118.09C135.448 118.183 135.616 118.23 135.823 118.23C136.076 118.23 136.295 118.185 136.478 118.095C136.665 118.002 136.846 117.862 137.023 117.675V116.81ZM134.193 114.585C134.783 114.045 135.493 113.775 136.323 113.775C136.623 113.775 136.891 113.825 137.128 113.925C137.365 114.022 137.565 114.158 137.728 114.335C137.891 114.508 138.015 114.717 138.098 114.96C138.185 115.203 138.228 115.47 138.228 115.76V119H137.668C137.551 119 137.461 118.983 137.398 118.95C137.335 118.913 137.285 118.842 137.248 118.735L137.138 118.365C137.008 118.482 136.881 118.585 136.758 118.675C136.635 118.762 136.506 118.835 136.373 118.895C136.24 118.955 136.096 119 135.943 119.03C135.793 119.063 135.626 119.08 135.443 119.08C135.226 119.08 135.026 119.052 134.843 118.995C134.66 118.935 134.501 118.847 134.368 118.73C134.235 118.613 134.131 118.468 134.058 118.295C133.985 118.122 133.948 117.92 133.948 117.69C133.948 117.56 133.97 117.432 134.013 117.305C134.056 117.175 134.126 117.052 134.223 116.935C134.323 116.818 134.451 116.708 134.608 116.605C134.765 116.502 134.956 116.412 135.183 116.335C135.413 116.258 135.68 116.197 135.983 116.15C136.286 116.1 136.633 116.07 137.023 116.06V115.76C137.023 115.417 136.95 115.163 136.803 115C136.656 114.833 136.445 114.75 136.168 114.75C135.968 114.75 135.801 114.773 135.668 114.82C135.538 114.867 135.423 114.92 135.323 114.98C135.223 115.037 135.131 115.088 135.048 115.135C134.968 115.182 134.878 115.205 134.778 115.205C134.691 115.205 134.618 115.183 134.558 115.14C134.498 115.093 134.45 115.04 134.413 114.98L134.193 114.585ZM143.066 114.955C143.03 115.002 142.993 115.038 142.956 115.065C142.923 115.092 142.873 115.105 142.806 115.105C142.743 115.105 142.681 115.087 142.621 115.05C142.561 115.01 142.49 114.967 142.406 114.92C142.323 114.87 142.223 114.827 142.106 114.79C141.993 114.75 141.851 114.73 141.681 114.73C141.465 114.73 141.275 114.77 141.111 114.85C140.948 114.927 140.811 115.038 140.701 115.185C140.595 115.332 140.515 115.51 140.461 115.72C140.408 115.927 140.381 116.162 140.381 116.425C140.381 116.698 140.41 116.942 140.466 117.155C140.526 117.368 140.611 117.548 140.721 117.695C140.831 117.838 140.965 117.948 141.121 118.025C141.278 118.098 141.455 118.135 141.651 118.135C141.848 118.135 142.006 118.112 142.126 118.065C142.25 118.015 142.353 117.962 142.436 117.905C142.52 117.845 142.591 117.792 142.651 117.745C142.715 117.695 142.785 117.67 142.861 117.67C142.961 117.67 143.036 117.708 143.086 117.785L143.441 118.235C143.305 118.395 143.156 118.53 142.996 118.64C142.836 118.747 142.67 118.833 142.496 118.9C142.326 118.963 142.15 119.008 141.966 119.035C141.786 119.062 141.606 119.075 141.426 119.075C141.11 119.075 140.811 119.017 140.531 118.9C140.251 118.78 140.006 118.607 139.796 118.38C139.586 118.153 139.42 117.877 139.296 117.55C139.176 117.22 139.116 116.845 139.116 116.425C139.116 116.048 139.17 115.7 139.276 115.38C139.386 115.057 139.546 114.778 139.756 114.545C139.966 114.308 140.226 114.123 140.536 113.99C140.846 113.857 141.203 113.79 141.606 113.79C141.99 113.79 142.325 113.852 142.611 113.975C142.901 114.098 143.161 114.275 143.391 114.505L143.066 114.955ZM147.433 115.845C147.433 115.685 147.409 115.535 147.363 115.395C147.319 115.252 147.253 115.127 147.163 115.02C147.073 114.913 146.958 114.83 146.818 114.77C146.681 114.707 146.521 114.675 146.338 114.675C145.981 114.675 145.699 114.777 145.493 114.98C145.289 115.183 145.159 115.472 145.103 115.845H147.433ZM145.078 116.59C145.098 116.853 145.144 117.082 145.218 117.275C145.291 117.465 145.388 117.623 145.508 117.75C145.628 117.873 145.769 117.967 145.933 118.03C146.099 118.09 146.283 118.12 146.483 118.12C146.683 118.12 146.854 118.097 146.998 118.05C147.144 118.003 147.271 117.952 147.378 117.895C147.488 117.838 147.583 117.787 147.663 117.74C147.746 117.693 147.826 117.67 147.903 117.67C148.006 117.67 148.083 117.708 148.133 117.785L148.488 118.235C148.351 118.395 148.198 118.53 148.028 118.64C147.858 118.747 147.679 118.833 147.493 118.9C147.309 118.963 147.121 119.008 146.928 119.035C146.738 119.062 146.553 119.075 146.373 119.075C146.016 119.075 145.684 119.017 145.378 118.9C145.071 118.78 144.804 118.605 144.578 118.375C144.351 118.142 144.173 117.855 144.043 117.515C143.913 117.172 143.848 116.775 143.848 116.325C143.848 115.975 143.904 115.647 144.018 115.34C144.131 115.03 144.293 114.762 144.503 114.535C144.716 114.305 144.974 114.123 145.278 113.99C145.584 113.857 145.929 113.79 146.313 113.79C146.636 113.79 146.934 113.842 147.208 113.945C147.481 114.048 147.716 114.2 147.913 114.4C148.109 114.597 148.263 114.84 148.373 115.13C148.486 115.417 148.543 115.745 148.543 116.115C148.543 116.302 148.523 116.428 148.483 116.495C148.443 116.558 148.366 116.59 148.253 116.59H145.078Z"
            fill="#1D1C1D" />
        <rect x="50" y="104" width="107" height="22" rx="4" stroke="#1D1C1D" stroke-opacity="0.3" />
        <g filter="url(#filter1_d_52_512)">
            <path
                d="M160.923 140.03C161.098 140.451 160.93 142.045 160 142.414C159.07 142.784 157.882 142.414 157.882 142.414L155.726 138.102L152 141.828V125L163.414 136.414H159.162C159.37 136.814 160.7 139.495 160.923 140.03Z"
                fill="white" />
            <path fill-rule="evenodd" clip-rule="evenodd"
                d="M153 127.414V139.414L156 136.414L158.5 141.414C158.5 141.414 159.176 141.63 159.5 141.414C159.824 141.198 160.146 140.764 160 140.414C159.312 138.764 157.5 135.414 157.5 135.414H161L153 127.414Z"
                fill="#202125" />
        </g>
    </g>
    <defs>
        <filter id="filter0_d_52_512" x="0" y="0" width="499" height="171" filterUnits="userSpaceOnUse"
            color-interpolation-filters="sRGB">
            <feFlood flood-opacity="0" result="BackgroundImageFix" />
            <feColorMatrix in="SourceAlpha" type="matrix" values="0 0 0 0 0 0 0 0 0 0 0 0 0 0 0 0 0 0 127 0"
                result="hardAlpha" />
            <feMorphology radius="1" operator="dilate" in="SourceAlpha" result="effect1_dropShadow_52_512" />
            <feOffset dy="4" />
            <feGaussianBlur stdDeviation="10" />
            <feColorMatrix type="matrix" values="0 0 0 0 0 0 0 0 0 0 0 0 0 0 0 0 0 0 0.05 0" />
            <feBlend mode="normal" in2="BackgroundImageFix" result="effect1_dropShadow_52_512" />
            <feBlend mode="normal" in="SourceGraphic" in2="effect1_dropShadow_52_512" result="shape" />
        </filter>
        <filter id="filter1_d_52_512" x="150.2" y="124.2" width="15.0142" height="21.1785" filterUnits="userSpaceOnUse"
            color-interpolation-filters="sRGB">
            <feFlood flood-opacity="0" result="BackgroundImageFix" />
            <feColorMatrix in="SourceAlpha" type="matrix" values="0 0 0 0 0 0 0 0 0 0 0 0 0 0 0 0 0 0 127 0"
                result="hardAlpha" />
            <feOffset dy="1" />
            <feGaussianBlur stdDeviation="0.9" />
            <feColorMatrix type="matrix" values="0 0 0 0 0 0 0 0 0 0 0 0 0 0 0 0 0 0 0.65 0" />
            <feBlend mode="normal" in2="BackgroundImageFix" result="effect1_dropShadow_52_512" />
            <feBlend mode="normal" in="SourceGraphic" in2="effect1_dropShadow_52_512" result="shape" />
        </filter>
    </defs>
</svg>