<svg width="499" height="126" viewBox="0 0 499 126" fill="none" xmlns="http://www.w3.org/2000/svg">
    <g filter="url(#filter0_d_64_480)">
        <rect x="21" y="17" width="457" height="84" rx="16" fill="#FFFBFF" />
        <path
            d="M56.3175 42.275C56.6775 42.275 56.9725 42.2325 57.2025 42.1475C57.4375 42.0575 57.625 41.94 57.765 41.795C57.905 41.65 58.0025 41.485 58.0575 41.3C58.1125 41.11 58.14 40.915 58.14 40.715C58.14 40.495 58.1075 40.2975 58.0425 40.1225C57.9775 39.9475 57.8725 39.8 57.7275 39.68C57.5825 39.555 57.3925 39.46 57.1575 39.395C56.9275 39.33 56.6425 39.2975 56.3025 39.2975H54.39V42.275H56.3175ZM54.39 34.8275V37.7675H55.8675C56.1825 37.7675 56.4625 37.7425 56.7075 37.6925C56.9525 37.6375 57.1575 37.5525 57.3225 37.4375C57.4875 37.3225 57.6125 37.1725 57.6975 36.9875C57.7875 36.7975 57.8325 36.57 57.8325 36.305C57.8325 36.035 57.795 35.805 57.72 35.615C57.65 35.425 57.54 35.2725 57.39 35.1575C57.24 35.0425 57.05 34.96 56.82 34.91C56.59 34.855 56.3175 34.8275 56.0025 34.8275H54.39ZM56.0025 33.1175C56.7325 33.1175 57.355 33.1875 57.87 33.3275C58.39 33.4625 58.8125 33.6575 59.1375 33.9125C59.4675 34.1625 59.7075 34.4675 59.8575 34.8275C60.0075 35.1875 60.0825 35.59 60.0825 36.035C60.0825 36.285 60.045 36.525 59.97 36.755C59.9 36.985 59.7875 37.2025 59.6325 37.4075C59.4825 37.6075 59.2875 37.79 59.0475 37.955C58.8075 38.12 58.5225 38.26 58.1925 38.375C58.9325 38.55 59.48 38.835 59.835 39.23C60.19 39.625 60.3675 40.1375 60.3675 40.7675C60.3675 41.2275 60.2775 41.655 60.0975 42.05C59.9225 42.445 59.665 42.7875 59.325 43.0775C58.985 43.3675 58.565 43.595 58.065 43.76C57.57 43.92 57 44 56.355 44H52.14V33.1175H56.0025ZM65.1863 36.1475C65.7663 36.1475 66.2938 36.24 66.7688 36.425C67.2438 36.61 67.6513 36.875 67.9913 37.22C68.3313 37.56 68.5938 37.975 68.7788 38.465C68.9638 38.955 69.0563 39.5075 69.0563 40.1225C69.0563 40.7375 68.9638 41.2925 68.7788 41.7875C68.5938 42.2775 68.3313 42.695 67.9913 43.04C67.6513 43.385 67.2438 43.65 66.7688 43.835C66.2938 44.02 65.7663 44.1125 65.1863 44.1125C64.6013 44.1125 64.0688 44.02 63.5888 43.835C63.1138 43.65 62.7063 43.385 62.3663 43.04C62.0263 42.695 61.7613 42.2775 61.5713 41.7875C61.3863 41.2925 61.2938 40.7375 61.2938 40.1225C61.2938 39.5075 61.3863 38.955 61.5713 38.465C61.7613 37.975 62.0263 37.56 62.3663 37.22C62.7063 36.875 63.1138 36.61 63.5888 36.425C64.0688 36.24 64.6013 36.1475 65.1863 36.1475ZM65.1863 42.56C65.7763 42.56 66.2138 42.3575 66.4988 41.9525C66.7838 41.5425 66.9263 40.935 66.9263 40.13C66.9263 39.33 66.7838 38.7275 66.4988 38.3225C66.2138 37.9125 65.7763 37.7075 65.1863 37.7075C64.5813 37.7075 64.1363 37.9125 63.8513 38.3225C63.5663 38.7275 63.4238 39.33 63.4238 40.13C63.4238 40.935 63.5663 41.5425 63.8513 41.9525C64.1363 42.3575 64.5813 42.56 65.1863 42.56ZM72.8795 44.12C72.5295 44.12 72.2195 44.07 71.9495 43.97C71.6795 43.865 71.452 43.7175 71.267 43.5275C71.082 43.3375 70.942 43.1075 70.847 42.8375C70.752 42.5675 70.7045 42.2625 70.7045 41.9225V37.7525H69.977C69.867 37.7525 69.772 37.7175 69.692 37.6475C69.617 37.5775 69.5795 37.4725 69.5795 37.3325V36.5225L70.817 36.2975L71.237 34.295C71.292 34.07 71.4445 33.9575 71.6945 33.9575H72.7745V36.3125H74.7695V37.7525H72.7745V41.7875C72.7745 42.0025 72.8245 42.1725 72.9245 42.2975C73.0295 42.4225 73.177 42.485 73.367 42.485C73.467 42.485 73.552 42.475 73.622 42.455C73.692 42.43 73.752 42.405 73.802 42.38C73.852 42.35 73.897 42.325 73.937 42.305C73.982 42.28 74.027 42.2675 74.072 42.2675C74.132 42.2675 74.182 42.2825 74.222 42.3125C74.262 42.3375 74.302 42.3825 74.342 42.4475L74.9645 43.4375C74.6795 43.6625 74.357 43.8325 73.997 43.9475C73.637 44.0625 73.2645 44.12 72.8795 44.12ZM84.178 42.2C84.543 42.2 84.8705 42.14 85.1605 42.02C85.4505 41.895 85.6955 41.72 85.8955 41.495C86.0955 41.27 86.248 40.9975 86.353 40.6775C86.458 40.3575 86.5105 39.9975 86.5105 39.5975V33.1175H88.7605V39.5975C88.7605 40.2575 88.653 40.865 88.438 41.42C88.228 41.97 87.9255 42.445 87.5305 42.845C87.1355 43.245 86.6555 43.5575 86.0905 43.7825C85.5255 44.0075 84.888 44.12 84.178 44.12C83.468 44.12 82.828 44.0075 82.258 43.7825C81.693 43.5575 81.213 43.245 80.818 42.845C80.423 42.445 80.118 41.97 79.903 41.42C79.693 40.865 79.588 40.2575 79.588 39.5975V33.1175H81.838V39.5975C81.838 39.9975 81.8905 40.3575 81.9955 40.6775C82.1005 40.9975 82.253 41.27 82.453 41.495C82.653 41.72 82.898 41.895 83.188 42.02C83.478 42.14 83.808 42.2 84.178 42.2ZM95.1146 37.8575C95.0596 37.9425 95.0021 38.005 94.9421 38.045C94.8871 38.08 94.8096 38.0975 94.7096 38.0975C94.6096 38.0975 94.5071 38.0725 94.4021 38.0225C94.2971 37.9725 94.1796 37.92 94.0496 37.865C93.9196 37.805 93.7696 37.75 93.5996 37.7C93.4346 37.65 93.2421 37.625 93.0221 37.625C92.6871 37.625 92.4271 37.695 92.2421 37.835C92.0571 37.97 91.9646 38.15 91.9646 38.375C91.9646 38.53 92.0171 38.66 92.1221 38.765C92.2271 38.87 92.3646 38.9625 92.5346 39.0425C92.7096 39.1175 92.9071 39.19 93.1271 39.26C93.3471 39.325 93.5721 39.3975 93.8021 39.4775C94.0371 39.5575 94.2646 39.65 94.4846 39.755C94.7046 39.86 94.8996 39.9925 95.0696 40.1525C95.2446 40.3075 95.3846 40.4975 95.4896 40.7225C95.5946 40.9425 95.6471 41.21 95.6471 41.525C95.6471 41.9 95.5771 42.2475 95.4371 42.5675C95.3021 42.8825 95.1021 43.155 94.8371 43.385C94.5721 43.615 94.2421 43.795 93.8471 43.925C93.4521 44.055 92.9971 44.12 92.4821 44.12C92.2171 44.12 91.9546 44.095 91.6946 44.045C91.4346 44 91.1871 43.935 90.9521 43.85C90.7171 43.76 90.4971 43.6575 90.2921 43.5425C90.0871 43.4275 89.9096 43.3025 89.7596 43.1675L90.2396 42.395C90.2946 42.305 90.3621 42.235 90.4421 42.185C90.5271 42.135 90.6346 42.11 90.7646 42.11C90.8896 42.11 91.0046 42.1425 91.1096 42.2075C91.2146 42.2675 91.3321 42.335 91.4621 42.41C91.5921 42.48 91.7446 42.5475 91.9196 42.6125C92.0996 42.6725 92.3221 42.7025 92.5871 42.7025C92.7871 42.7025 92.9596 42.68 93.1046 42.635C93.2496 42.59 93.3671 42.53 93.4571 42.455C93.5471 42.375 93.6121 42.2875 93.6521 42.1925C93.6971 42.0925 93.7196 41.99 93.7196 41.885C93.7196 41.715 93.6646 41.5775 93.5546 41.4725C93.4496 41.3625 93.3096 41.2675 93.1346 41.1875C92.9646 41.1075 92.7671 41.035 92.5421 40.97C92.3171 40.905 92.0871 40.8325 91.8521 40.7525C91.6221 40.6725 91.3946 40.5775 91.1696 40.4675C90.9496 40.3575 90.7521 40.22 90.5771 40.055C90.4071 39.885 90.2671 39.6775 90.1571 39.4325C90.0521 39.1875 89.9996 38.89 89.9996 38.54C89.9996 38.22 90.0621 37.9175 90.1871 37.6325C90.3121 37.3425 90.4996 37.0875 90.7496 36.8675C90.9996 36.6475 91.3096 36.4725 91.6796 36.3425C92.0546 36.2125 92.4871 36.1475 92.9771 36.1475C93.5271 36.1475 94.0271 36.2375 94.4771 36.4175C94.9271 36.5975 95.2971 36.8325 95.5871 37.1225L95.1146 37.8575ZM101.848 39.2225C101.848 39.0075 101.818 38.8025 101.758 38.6075C101.703 38.4125 101.613 38.24 101.488 38.09C101.363 37.94 101.205 37.8225 101.015 37.7375C100.825 37.6475 100.598 37.6025 100.333 37.6025C99.8379 37.6025 99.4504 37.7425 99.1704 38.0225C98.8904 38.3025 98.7079 38.7025 98.6229 39.2225H101.848ZM98.5929 40.4525C98.6579 41.1775 98.8629 41.7075 99.2079 42.0425C99.5579 42.3775 100.013 42.545 100.573 42.545C100.858 42.545 101.103 42.5125 101.308 42.4475C101.518 42.3775 101.7 42.3025 101.855 42.2225C102.015 42.1375 102.158 42.0625 102.283 41.9975C102.413 41.9275 102.54 41.8925 102.665 41.8925C102.825 41.8925 102.95 41.9525 103.04 42.0725L103.64 42.8225C103.42 43.0775 103.178 43.29 102.913 43.46C102.648 43.625 102.373 43.7575 102.088 43.8575C101.803 43.9525 101.515 44.0175 101.225 44.0525C100.935 44.0925 100.655 44.1125 100.385 44.1125C99.8454 44.1125 99.3404 44.025 98.8704 43.85C98.4054 43.67 97.9979 43.4075 97.6479 43.0625C97.3029 42.7125 97.0304 42.28 96.8304 41.765C96.6304 41.25 96.5304 40.6525 96.5304 39.9725C96.5304 39.4475 96.6154 38.9525 96.7854 38.4875C96.9604 38.0225 97.2104 37.6175 97.5354 37.2725C97.8604 36.9275 98.2554 36.655 98.7204 36.455C99.1854 36.25 99.7104 36.1475 100.295 36.1475C100.79 36.1475 101.245 36.2275 101.66 36.3875C102.08 36.5425 102.44 36.77 102.74 37.07C103.045 37.37 103.28 37.74 103.445 38.18C103.615 38.615 103.7 39.1125 103.7 39.6725C103.7 39.8275 103.693 39.955 103.678 40.055C103.663 40.155 103.638 40.235 103.603 40.295C103.568 40.355 103.52 40.3975 103.46 40.4225C103.4 40.4425 103.323 40.4525 103.228 40.4525H98.5929ZM106.927 37.5425C107.172 37.1025 107.455 36.755 107.775 36.5C108.095 36.245 108.47 36.1175 108.9 36.1175C109.25 36.1175 109.535 36.2 109.755 36.365L109.62 37.895C109.595 37.995 109.555 38.065 109.5 38.105C109.45 38.14 109.38 38.1575 109.29 38.1575C109.21 38.1575 109.095 38.1475 108.945 38.1275C108.795 38.1025 108.655 38.09 108.525 38.09C108.335 38.09 108.165 38.1175 108.015 38.1725C107.87 38.2275 107.74 38.305 107.625 38.405C107.51 38.505 107.405 38.6275 107.31 38.7725C107.22 38.9175 107.135 39.0825 107.055 39.2675V44H104.985V36.2675H106.207C106.417 36.2675 106.562 36.305 106.642 36.38C106.722 36.455 106.78 36.585 106.815 36.77L106.927 37.5425ZM124.691 38.555C124.691 39.35 124.556 40.0875 124.286 40.7675C124.021 41.4475 123.644 42.035 123.154 42.53C122.669 43.025 122.084 43.415 121.399 43.7C120.714 43.98 119.954 44.12 119.119 44.12C118.284 44.12 117.524 43.98 116.839 43.7C116.154 43.415 115.566 43.025 115.076 42.53C114.586 42.035 114.206 41.4475 113.936 40.7675C113.671 40.0875 113.539 39.35 113.539 38.555C113.539 37.76 113.671 37.025 113.936 36.35C114.206 35.67 114.586 35.0825 115.076 34.5875C115.566 34.0925 116.154 33.705 116.839 33.425C117.524 33.14 118.284 32.9975 119.119 32.9975C119.954 32.9975 120.714 33.14 121.399 33.425C122.084 33.705 122.669 34.095 123.154 34.595C123.644 35.09 124.021 35.6775 124.286 36.3575C124.556 37.0325 124.691 37.765 124.691 38.555ZM122.389 38.555C122.389 37.985 122.314 37.475 122.164 37.025C122.014 36.57 121.796 36.185 121.511 35.87C121.231 35.55 120.889 35.3075 120.484 35.1425C120.084 34.9725 119.629 34.8875 119.119 34.8875C118.609 34.8875 118.151 34.9725 117.746 35.1425C117.341 35.3075 116.996 35.55 116.711 35.87C116.431 36.185 116.216 36.57 116.066 37.025C115.916 37.475 115.841 37.985 115.841 38.555C115.841 39.13 115.916 39.645 116.066 40.1C116.216 40.55 116.431 40.9325 116.711 41.2475C116.996 41.5625 117.341 41.805 117.746 41.975C118.151 42.14 118.609 42.2225 119.119 42.2225C119.629 42.2225 120.084 42.14 120.484 41.975C120.889 41.805 121.231 41.5625 121.511 41.2475C121.796 40.9325 122.014 40.55 122.164 40.1C122.314 39.645 122.389 39.13 122.389 38.555ZM131.728 39.8675L130.55 36.5375C130.48 36.3625 130.405 36.1575 130.325 35.9225C130.25 35.6875 130.178 35.4325 130.108 35.1575C130.038 35.4375 129.963 35.6975 129.883 35.9375C129.808 36.1725 129.735 36.3775 129.665 36.5525L128.495 39.8675H131.728ZM135.508 44H133.76C133.565 44 133.405 43.955 133.28 43.865C133.16 43.77 133.07 43.65 133.01 43.505L132.275 41.4275H127.94L127.205 43.505C127.155 43.63 127.068 43.745 126.943 43.85C126.818 43.95 126.66 44 126.47 44H124.708L128.96 33.1175H131.263L135.508 44ZM142.856 36.2675V44H141.581C141.316 44 141.146 43.88 141.071 43.64L140.936 43.1C140.781 43.25 140.621 43.3875 140.456 43.5125C140.291 43.6375 140.114 43.745 139.924 43.835C139.739 43.925 139.536 43.995 139.316 44.045C139.101 44.095 138.866 44.12 138.611 44.12C138.191 44.12 137.816 44.0475 137.486 43.9025C137.161 43.7575 136.889 43.555 136.669 43.295C136.449 43.035 136.281 42.725 136.166 42.365C136.051 42.005 135.994 41.61 135.994 41.18V36.2675H138.064V41.18C138.064 41.61 138.161 41.945 138.356 42.185C138.556 42.42 138.851 42.5375 139.241 42.5375C139.531 42.5375 139.804 42.475 140.059 42.35C140.314 42.22 140.556 42.045 140.786 41.825V36.2675H142.856ZM147.235 44.12C146.885 44.12 146.575 44.07 146.305 43.97C146.035 43.865 145.807 43.7175 145.622 43.5275C145.437 43.3375 145.297 43.1075 145.202 42.8375C145.107 42.5675 145.06 42.2625 145.06 41.9225V37.7525H144.332C144.222 37.7525 144.127 37.7175 144.047 37.6475C143.972 37.5775 143.935 37.4725 143.935 37.3325V36.5225L145.172 36.2975L145.592 34.295C145.647 34.07 145.8 33.9575 146.05 33.9575H147.13V36.3125H149.125V37.7525H147.13V41.7875C147.13 42.0025 147.18 42.1725 147.28 42.2975C147.385 42.4225 147.532 42.485 147.722 42.485C147.822 42.485 147.907 42.475 147.977 42.455C148.047 42.43 148.107 42.405 148.157 42.38C148.207 42.35 148.252 42.325 148.292 42.305C148.337 42.28 148.382 42.2675 148.427 42.2675C148.487 42.2675 148.537 42.2825 148.577 42.3125C148.617 42.3375 148.657 42.3825 148.697 42.4475L149.32 43.4375C149.035 43.6625 148.712 43.8325 148.352 43.9475C147.992 44.0625 147.62 44.12 147.235 44.12ZM152.304 37.025C152.449 36.895 152.599 36.7775 152.754 36.6725C152.914 36.5625 153.081 36.47 153.256 36.395C153.436 36.315 153.626 36.255 153.826 36.215C154.031 36.17 154.251 36.1475 154.486 36.1475C154.906 36.1475 155.279 36.22 155.604 36.365C155.929 36.51 156.201 36.7125 156.421 36.9725C156.646 37.2325 156.814 37.5425 156.924 37.9025C157.039 38.2625 157.096 38.6575 157.096 39.0875V44H155.034V39.0875C155.034 38.6575 154.934 38.325 154.734 38.09C154.534 37.85 154.239 37.73 153.849 37.73C153.559 37.73 153.286 37.7925 153.031 37.9175C152.776 38.0425 152.534 38.2175 152.304 38.4425V44H150.234V32.8175H152.304V37.025ZM169.838 34.9325H166.658V44H164.4V34.9325H161.22V33.1175H169.838V34.9325ZM172.603 36.1475C173.183 36.1475 173.711 36.24 174.186 36.425C174.661 36.61 175.068 36.875 175.408 37.22C175.748 37.56 176.011 37.975 176.196 38.465C176.381 38.955 176.473 39.5075 176.473 40.1225C176.473 40.7375 176.381 41.2925 176.196 41.7875C176.011 42.2775 175.748 42.695 175.408 43.04C175.068 43.385 174.661 43.65 174.186 43.835C173.711 44.02 173.183 44.1125 172.603 44.1125C172.018 44.1125 171.486 44.02 171.006 43.835C170.531 43.65 170.123 43.385 169.783 43.04C169.443 42.695 169.178 42.2775 168.988 41.7875C168.803 41.2925 168.711 40.7375 168.711 40.1225C168.711 39.5075 168.803 38.955 168.988 38.465C169.178 37.975 169.443 37.56 169.783 37.22C170.123 36.875 170.531 36.61 171.006 36.425C171.486 36.24 172.018 36.1475 172.603 36.1475ZM172.603 42.56C173.193 42.56 173.631 42.3575 173.916 41.9525C174.201 41.5425 174.343 40.935 174.343 40.13C174.343 39.33 174.201 38.7275 173.916 38.3225C173.631 37.9125 173.193 37.7075 172.603 37.7075C171.998 37.7075 171.553 37.9125 171.268 38.3225C170.983 38.7275 170.841 39.33 170.841 40.13C170.841 40.935 170.983 41.5425 171.268 41.9525C171.553 42.3575 171.998 42.56 172.603 42.56ZM179.843 32.8175V39.1625H180.188C180.318 39.1625 180.42 39.145 180.495 39.11C180.57 39.07 180.645 39 180.72 38.9L182.43 36.62C182.515 36.505 182.61 36.4175 182.715 36.3575C182.825 36.2975 182.963 36.2675 183.128 36.2675H185.018L182.798 39.0875C182.623 39.3225 182.42 39.5075 182.19 39.6425C182.305 39.7225 182.405 39.815 182.49 39.92C182.575 40.025 182.658 40.1425 182.738 40.2725L185.13 44H183.27C183.11 44 182.973 43.975 182.858 43.925C182.743 43.87 182.648 43.775 182.573 43.64L180.833 40.7975C180.763 40.6775 180.69 40.6 180.615 40.565C180.54 40.53 180.428 40.5125 180.278 40.5125H179.843V44H177.773V32.8175H179.843ZM190.486 39.2225C190.486 39.0075 190.456 38.8025 190.396 38.6075C190.341 38.4125 190.251 38.24 190.126 38.09C190.001 37.94 189.843 37.8225 189.653 37.7375C189.463 37.6475 189.236 37.6025 188.971 37.6025C188.476 37.6025 188.088 37.7425 187.808 38.0225C187.528 38.3025 187.346 38.7025 187.261 39.2225H190.486ZM187.231 40.4525C187.296 41.1775 187.501 41.7075 187.846 42.0425C188.196 42.3775 188.651 42.545 189.211 42.545C189.496 42.545 189.741 42.5125 189.946 42.4475C190.156 42.3775 190.338 42.3025 190.493 42.2225C190.653 42.1375 190.796 42.0625 190.921 41.9975C191.051 41.9275 191.178 41.8925 191.303 41.8925C191.463 41.8925 191.588 41.9525 191.678 42.0725L192.278 42.8225C192.058 43.0775 191.816 43.29 191.551 43.46C191.286 43.625 191.011 43.7575 190.726 43.8575C190.441 43.9525 190.153 44.0175 189.863 44.0525C189.573 44.0925 189.293 44.1125 189.023 44.1125C188.483 44.1125 187.978 44.025 187.508 43.85C187.043 43.67 186.636 43.4075 186.286 43.0625C185.941 42.7125 185.668 42.28 185.468 41.765C185.268 41.25 185.168 40.6525 185.168 39.9725C185.168 39.4475 185.253 38.9525 185.423 38.4875C185.598 38.0225 185.848 37.6175 186.173 37.2725C186.498 36.9275 186.893 36.655 187.358 36.455C187.823 36.25 188.348 36.1475 188.933 36.1475C189.428 36.1475 189.883 36.2275 190.298 36.3875C190.718 36.5425 191.078 36.77 191.378 37.07C191.683 37.37 191.918 37.74 192.083 38.18C192.253 38.615 192.338 39.1125 192.338 39.6725C192.338 39.8275 192.331 39.955 192.316 40.055C192.301 40.155 192.276 40.235 192.241 40.295C192.206 40.355 192.158 40.3975 192.098 40.4225C192.038 40.4425 191.961 40.4525 191.866 40.4525H187.231ZM195.543 37.1675C195.698 37.0175 195.858 36.88 196.023 36.755C196.193 36.63 196.37 36.5225 196.555 36.4325C196.745 36.3425 196.948 36.2725 197.163 36.2225C197.383 36.1725 197.62 36.1475 197.875 36.1475C198.295 36.1475 198.668 36.22 198.993 36.365C199.318 36.51 199.59 36.7125 199.81 36.9725C200.035 37.2325 200.203 37.5425 200.313 37.9025C200.428 38.2625 200.485 38.6575 200.485 39.0875V44H198.423V39.0875C198.423 38.6575 198.323 38.325 198.123 38.09C197.923 37.85 197.628 37.73 197.238 37.73C196.948 37.73 196.675 37.7925 196.42 37.9175C196.165 38.0425 195.923 38.2175 195.693 38.4425V44H193.623V36.2675H194.898C195.158 36.2675 195.33 36.3875 195.415 36.6275L195.543 37.1675Z"
            fill="#1D1C1D" />
        <rect x="59" y="68.5" width="334" height="5" rx="2.5" fill="#E6E2D9" />
        <path
            d="M414.77 73.295C414.843 73.295 414.908 73.3233 414.965 73.38L415.495 73.955C415.202 74.3183 414.84 74.5967 414.41 74.79C413.983 74.9833 413.47 75.08 412.87 75.08C412.333 75.08 411.85 74.9883 411.42 74.805C410.993 74.6217 410.628 74.3667 410.325 74.04C410.022 73.7133 409.788 73.3233 409.625 72.87C409.465 72.4167 409.385 71.9217 409.385 71.385C409.385 70.8417 409.472 70.345 409.645 69.895C409.818 69.4417 410.062 69.0517 410.375 68.725C410.692 68.3983 411.068 68.145 411.505 67.965C411.942 67.7817 412.425 67.69 412.955 67.69C413.482 67.69 413.948 67.7767 414.355 67.95C414.765 68.1233 415.113 68.35 415.4 68.63L414.95 69.255C414.923 69.295 414.888 69.33 414.845 69.36C414.805 69.39 414.748 69.405 414.675 69.405C414.625 69.405 414.573 69.3917 414.52 69.365C414.467 69.335 414.408 69.3 414.345 69.26C414.282 69.2167 414.208 69.17 414.125 69.12C414.042 69.07 413.945 69.025 413.835 68.985C413.725 68.9417 413.597 68.9067 413.45 68.88C413.307 68.85 413.14 68.835 412.95 68.835C412.627 68.835 412.33 68.8933 412.06 69.01C411.793 69.1233 411.563 69.29 411.37 69.51C411.177 69.7267 411.027 69.9933 410.92 70.31C410.813 70.6233 410.76 70.9817 410.76 71.385C410.76 71.7917 410.817 72.1533 410.93 72.47C411.047 72.7867 411.203 73.0533 411.4 73.27C411.597 73.4867 411.828 73.6533 412.095 73.77C412.362 73.8833 412.648 73.94 412.955 73.94C413.138 73.94 413.303 73.93 413.45 73.91C413.6 73.89 413.737 73.8583 413.86 73.815C413.987 73.7717 414.105 73.7167 414.215 73.65C414.328 73.58 414.44 73.495 414.55 73.395C414.583 73.365 414.618 73.3417 414.655 73.325C414.692 73.305 414.73 73.295 414.77 73.295ZM418.384 69.79C418.764 69.79 419.109 69.8517 419.419 69.975C419.732 70.0983 419.999 70.2733 420.219 70.5C420.442 70.7267 420.614 71.0033 420.734 71.33C420.854 71.6567 420.914 72.0217 420.914 72.425C420.914 72.8317 420.854 73.1983 420.734 73.525C420.614 73.8517 420.442 74.13 420.219 74.36C419.999 74.59 419.732 74.7667 419.419 74.89C419.109 75.0133 418.764 75.075 418.384 75.075C418.001 75.075 417.652 75.0133 417.339 74.89C417.026 74.7667 416.757 74.59 416.534 74.36C416.314 74.13 416.142 73.8517 416.019 73.525C415.899 73.1983 415.839 72.8317 415.839 72.425C415.839 72.0217 415.899 71.6567 416.019 71.33C416.142 71.0033 416.314 70.7267 416.534 70.5C416.757 70.2733 417.026 70.0983 417.339 69.975C417.652 69.8517 418.001 69.79 418.384 69.79ZM418.384 74.125C418.811 74.125 419.126 73.9817 419.329 73.695C419.536 73.4083 419.639 72.9883 419.639 72.435C419.639 71.8817 419.536 71.46 419.329 71.17C419.126 70.88 418.811 70.735 418.384 70.735C417.951 70.735 417.629 70.8817 417.419 71.175C417.212 71.465 417.109 71.885 417.109 72.435C417.109 72.985 417.212 73.405 417.419 73.695C417.629 73.9817 417.951 74.125 418.384 74.125ZM423.091 73.67C423.231 73.84 423.383 73.96 423.546 74.03C423.713 74.1 423.893 74.135 424.086 74.135C424.273 74.135 424.441 74.1 424.591 74.03C424.741 73.96 424.868 73.8533 424.971 73.71C425.078 73.5667 425.159 73.3867 425.216 73.17C425.273 72.95 425.301 72.6917 425.301 72.395C425.301 72.095 425.276 71.8417 425.226 71.635C425.179 71.425 425.111 71.255 425.021 71.125C424.931 70.995 424.821 70.9 424.691 70.84C424.564 70.78 424.419 70.75 424.256 70.75C423.999 70.75 423.781 70.805 423.601 70.915C423.421 71.0217 423.251 71.1733 423.091 71.37V73.67ZM423.026 70.57C423.236 70.3333 423.474 70.1417 423.741 69.995C424.008 69.8483 424.321 69.775 424.681 69.775C424.961 69.775 425.216 69.8333 425.446 69.95C425.679 70.0667 425.879 70.2367 426.046 70.46C426.216 70.68 426.346 70.9533 426.436 71.28C426.529 71.6033 426.576 71.975 426.576 72.395C426.576 72.7783 426.524 73.1333 426.421 73.46C426.318 73.7867 426.169 74.07 425.976 74.31C425.786 74.55 425.554 74.7383 425.281 74.875C425.011 75.0083 424.708 75.075 424.371 75.075C424.084 75.075 423.839 75.0317 423.636 74.945C423.433 74.855 423.251 74.7317 423.091 74.575V76.675H421.856V69.87H422.611C422.771 69.87 422.876 69.945 422.926 70.095L423.026 70.57ZM432.053 69.87L429.258 76.41C429.222 76.4967 429.173 76.5617 429.113 76.605C429.057 76.6517 428.968 76.675 428.848 76.675H427.928L428.888 74.615L426.813 69.87H427.898C427.995 69.87 428.07 69.8933 428.123 69.94C428.18 69.9867 428.222 70.04 428.248 70.1L429.338 72.76C429.375 72.85 429.405 72.94 429.428 73.03C429.455 73.12 429.48 73.2117 429.503 73.305C429.533 73.2117 429.563 73.12 429.593 73.03C429.623 72.9367 429.657 72.845 429.693 72.755L430.723 70.1C430.75 70.0333 430.793 69.9783 430.853 69.935C430.917 69.8917 430.987 69.87 431.063 69.87H432.053Z"
            fill="#1D1C1D" />
        <rect x="401" y="60" width="40" height="22" rx="4" stroke="#1D1C1D" stroke-opacity="0.3" />
        <rect x="51" y="57" width="397" height="28" rx="4" stroke="#1D1C1D" stroke-opacity="0.3" />
        <g filter="url(#filter1_d_64_480)">
            <path
                d="M446.923 86.0296C447.098 86.4505 446.93 88.0447 446 88.4142C445.07 88.7837 443.882 88.4142 443.882 88.4142L441.726 84.1024L438 87.8284V71L449.414 82.4142H445.162C445.37 82.8144 446.7 85.4948 446.923 86.0296Z"
                fill="white" />
            <path fill-rule="evenodd" clip-rule="evenodd"
                d="M439 73.4142V85.4142L442 82.4142L444.5 87.4142C444.5 87.4142 445.176 87.63 445.5 87.4142C445.824 87.1984 446.146 86.7638 446 86.4142C445.312 84.7638 443.5 81.4142 443.5 81.4142H447L439 73.4142Z"
                fill="#202125" />
        </g>
    </g>
    <defs>
        <filter id="filter0_d_64_480" x="0" y="0" width="499" height="126" filterUnits="userSpaceOnUse"
            color-interpolation-filters="sRGB">
            <feFlood flood-opacity="0" result="BackgroundImageFix" />
            <feColorMatrix in="SourceAlpha" type="matrix" values="0 0 0 0 0 0 0 0 0 0 0 0 0 0 0 0 0 0 127 0"
                result="hardAlpha" />
            <feMorphology radius="1" operator="dilate" in="SourceAlpha" result="effect1_dropShadow_64_480" />
            <feOffset dy="4" />
            <feGaussianBlur stdDeviation="10" />
            <feColorMatrix type="matrix" values="0 0 0 0 0 0 0 0 0 0 0 0 0 0 0 0 0 0 0.05 0" />
            <feBlend mode="normal" in2="BackgroundImageFix" result="effect1_dropShadow_64_480" />
            <feBlend mode="normal" in="SourceGraphic" in2="effect1_dropShadow_64_480" result="shape" />
        </filter>
        <filter id="filter1_d_64_480" x="436.2" y="70.2" width="15.0143" height="21.1785" filterUnits="userSpaceOnUse"
            color-interpolation-filters="sRGB">
            <feFlood flood-opacity="0" result="BackgroundImageFix" />
            <feColorMatrix in="SourceAlpha" type="matrix" values="0 0 0 0 0 0 0 0 0 0 0 0 0 0 0 0 0 0 127 0"
                result="hardAlpha" />
            <feOffset dy="1" />
            <feGaussianBlur stdDeviation="0.9" />
            <feColorMatrix type="matrix" values="0 0 0 0 0 0 0 0 0 0 0 0 0 0 0 0 0 0 0.65 0" />
            <feBlend mode="normal" in2="BackgroundImageFix" result="effect1_dropShadow_64_480" />
            <feBlend mode="normal" in="SourceGraphic" in2="effect1_dropShadow_64_480" result="shape" />
        </filter>
    </defs>
</svg>